<svg width="762" height="292" viewBox="0 0 762 292" fill="none" xmlns="http://www.w3.org/2000/svg">
<path d="M166.648 131.344C166.648 135.76 166.36 139.984 165.784 144.016H62.968C63.928 158.032 69.784 165.04 80.536 165.04C87.448 165.04 92.44 161.872 95.512 155.536H163.192C160.888 167.056 155.992 177.424 148.504 186.64C141.208 195.664 131.896 202.864 120.568 208.24C109.432 213.424 97.144 216.016 83.704 216.016C67.576 216.016 53.176 212.656 40.504 205.936C28.024 199.216 18.232 189.616 11.128 177.136C4.216 164.464 0.76 149.68 0.76 132.784C0.76 115.888 4.216 101.2 11.128 88.72C18.232 76.048 28.024 66.352 40.504 59.632C53.176 52.912 67.576 49.552 83.704 49.552C99.832 49.552 114.136 52.912 126.616 59.632C139.288 66.16 149.08 75.568 155.992 87.856C163.096 100.144 166.648 114.64 166.648 131.344ZM101.848 116.08C101.848 110.704 100.12 106.672 96.664 103.984C93.208 101.104 88.888 99.664 83.704 99.664C72.376 99.664 65.752 105.136 63.832 116.08H101.848ZM178.229 132.784C178.229 115.696 181.109 100.912 186.869 88.432C192.821 75.76 200.885 66.16 211.061 59.632C221.237 52.912 232.661 49.552 245.333 49.552C255.893 49.552 265.013 51.76 272.693 56.176C280.373 60.4 286.229 66.256 290.261 73.744V51.568H353.909V214H290.261V191.824C286.229 199.312 280.373 205.264 272.693 209.68C265.013 213.904 255.893 216.016 245.333 216.016C232.661 216.016 221.237 212.752 211.061 206.224C200.885 199.504 192.821 189.904 186.869 177.424C181.109 164.752 178.229 149.872 178.229 132.784ZM290.261 132.784C290.261 124.144 288.053 117.424 283.637 112.624C279.221 107.824 273.557 105.424 266.645 105.424C259.733 105.424 254.069 107.824 249.653 112.624C245.237 117.424 243.029 124.144 243.029 132.784C243.029 141.424 245.237 148.144 249.653 152.944C254.069 157.744 259.733 160.144 266.645 160.144C273.557 160.144 279.221 157.744 283.637 152.944C288.053 148.144 290.261 141.424 290.261 132.784ZM373.979 132.784C373.979 115.696 376.859 100.912 382.619 88.432C388.571 75.76 396.635 66.16 406.811 59.632C416.987 52.912 428.411 49.552 441.083 49.552C451.643 49.552 460.667 51.76 468.155 56.176C475.835 60.4 481.691 66.256 485.723 73.744V0.879997H549.659V214H485.723V191.824C481.691 199.312 475.835 205.264 468.155 209.68C460.667 213.904 451.643 216.016 441.083 216.016C428.411 216.016 416.987 212.752 406.811 206.224C396.635 199.504 388.571 189.904 382.619 177.424C376.859 164.752 373.979 149.872 373.979 132.784ZM486.011 132.784C486.011 124.144 483.803 117.424 479.387 112.624C474.971 107.824 469.307 105.424 462.395 105.424C455.483 105.424 449.819 107.824 445.403 112.624C440.987 117.424 438.779 124.144 438.779 132.784C438.779 141.424 440.987 148.144 445.403 152.944C449.819 157.744 455.483 160.144 462.395 160.144C469.307 160.144 474.971 157.744 479.387 152.944C483.803 148.144 486.011 141.424 486.011 132.784ZM761.825 51.568L657.857 291.76H587.873L628.769 205.936L561.089 51.568H632.225L662.753 133.936L691.265 51.568H761.825Z" fill="#2E2E31"/>
<path d="M165.784 144.016V160.016H179.661L181.623 146.279L165.784 144.016ZM62.968 144.016V128.016H45.8346L47.0054 145.109L62.968 144.016ZM95.512 155.536V139.536H85.4881L81.115 148.556L95.512 155.536ZM163.192 155.536L178.881 158.674L182.709 139.536H163.192V155.536ZM148.504 186.64L136.086 176.551L136.074 176.565L136.062 176.58L148.504 186.64ZM120.568 208.24L127.32 222.745L127.374 222.72L127.428 222.695L120.568 208.24ZM40.504 205.936L32.9184 220.024L32.9631 220.048L33.008 220.071L40.504 205.936ZM11.128 177.136L-2.91833 184.798L-2.84883 184.925L-2.77704 185.051L11.128 177.136ZM11.128 88.72L-2.82849 80.8959L-2.84867 80.9319L-2.86866 80.968L11.128 88.72ZM40.504 59.632L33.008 45.4966L32.9631 45.5204L32.9184 45.5444L40.504 59.632ZM126.616 59.632L119.03 73.7195L119.159 73.7887L119.289 73.8556L126.616 59.632ZM155.992 87.856L142.047 95.7002L142.093 95.7824L142.14 95.864L155.992 87.856ZM101.848 116.08V132.08H117.848V116.08H101.848ZM96.664 103.984L86.4211 116.276L86.6282 116.448L86.841 116.614L96.664 103.984ZM63.832 116.08L48.0727 113.315L44.7806 132.08H63.832V116.08ZM150.648 131.344C150.648 135.066 150.405 138.53 149.945 141.753L181.623 146.279C182.315 141.438 182.648 136.454 182.648 131.344H150.648ZM165.784 128.016H62.968V160.016H165.784V128.016ZM47.0054 145.109C47.5997 153.786 49.8268 162.893 55.8023 170.043C62.3214 177.845 71.3516 181.04 80.536 181.04V149.04C79.5802 149.04 79.3765 148.886 79.6103 148.985C79.9137 149.113 80.2108 149.349 80.3577 149.525C80.4503 149.635 80.1761 149.359 79.8261 148.28C79.4695 147.18 79.1041 145.455 78.9306 142.923L47.0054 145.109ZM80.536 181.04C86.5056 181.04 92.5696 179.643 98.0372 176.173C103.487 172.715 107.326 167.844 109.909 162.516L81.115 148.556C80.8598 149.082 80.6804 149.304 80.6479 149.342C80.6263 149.368 80.7057 149.272 80.8908 149.155C80.9752 149.101 81.0576 149.059 81.1294 149.027C81.1641 149.012 81.1924 149.002 81.2132 148.994C81.2234 148.991 81.2314 148.988 81.2369 148.987C81.2424 148.985 81.2452 148.984 81.2452 148.984C81.2451 148.984 81.2421 148.985 81.2358 148.986C81.2295 148.988 81.2199 148.99 81.2067 148.992C81.1805 148.997 81.1395 149.004 81.0826 149.011C80.9686 149.025 80.7893 149.04 80.536 149.04V181.04ZM95.512 171.536H163.192V139.536H95.512V171.536ZM147.503 152.398C145.714 161.341 141.954 169.329 136.086 176.551L160.922 196.729C170.03 185.519 176.062 172.771 178.881 158.674L147.503 152.398ZM136.062 176.58C130.393 183.592 123.047 189.353 113.708 193.785L127.428 222.695C140.745 216.375 152.023 207.736 160.946 196.7L136.062 176.58ZM113.816 193.735C104.987 197.844 95.0335 200.016 83.704 200.016V232.016C99.2546 232.016 113.877 229.004 127.32 222.745L113.816 193.735ZM83.704 200.016C69.8599 200.016 58.0886 197.151 48 191.801L33.008 220.071C48.2635 228.161 65.2921 232.016 83.704 232.016V200.016ZM48.0896 191.848C38.29 186.572 30.6721 179.127 25.033 169.221L-2.77704 185.051C5.79186 200.105 17.758 211.86 32.9184 220.024L48.0896 191.848ZM25.1743 169.474C19.7471 159.525 16.76 147.461 16.76 132.784H-15.24C-15.24 151.899 -11.3151 169.404 -2.91833 184.798L25.1743 169.474ZM16.76 132.784C16.76 118.099 19.7496 106.177 25.1247 96.472L-2.86866 80.968C-11.3176 96.223 -15.24 113.677 -15.24 132.784H16.76ZM25.0845 96.5441C30.7418 86.4527 38.3544 78.9615 48.0896 73.7195L32.9184 45.5444C17.6936 53.7424 5.72223 65.6433 -2.82849 80.8959L25.0845 96.5441ZM48 73.7674C58.0886 68.4174 69.8599 65.552 83.704 65.552V33.552C65.2921 33.552 48.2634 37.4066 33.008 45.4966L48 73.7674ZM83.704 65.552C97.5533 65.552 109.186 68.4189 119.03 73.7195L134.202 45.5445C119.086 37.4051 102.111 33.552 83.704 33.552V65.552ZM119.289 73.8556C129.211 78.9671 136.687 86.1721 142.047 95.7002L169.937 80.0118C161.473 64.9639 149.365 53.3529 133.943 45.4084L119.289 73.8556ZM142.14 95.864C147.606 105.318 150.648 116.951 150.648 131.344H182.648C182.648 112.329 178.586 94.9699 169.844 79.8479L142.14 95.864ZM117.848 116.08C117.848 107.014 114.729 97.7649 106.487 91.3544L86.841 116.614C86.6737 116.484 86.4656 116.287 86.2635 116.025C86.0615 115.763 85.9262 115.515 85.8457 115.327C85.6868 114.956 85.848 115.083 85.848 116.08H117.848ZM106.907 91.6924C100.145 86.0574 92.0292 83.664 83.704 83.664V115.664C85.7468 115.664 86.2712 116.151 86.4211 116.276L106.907 91.6924ZM83.704 83.664C75.5159 83.664 67.0326 85.6643 60.0499 91.4326C53.0286 97.2328 49.4939 105.214 48.0727 113.315L79.5913 118.845C80.0901 116.002 80.8274 115.775 80.4301 116.103C80.0715 116.4 80.5641 115.664 83.704 115.664V83.664ZM63.832 132.08H101.848V100.08H63.832V132.08ZM186.869 88.432L172.387 81.6298L172.364 81.6784L172.341 81.7271L186.869 88.432ZM211.061 59.632L219.7 73.0991L219.789 73.0419L219.878 72.9834L211.061 59.632ZM272.693 56.176L264.717 70.0465L264.849 70.1222L264.982 70.1954L272.693 56.176ZM290.261 73.744L276.173 81.3296L306.261 73.744H290.261ZM290.261 51.568V35.568H274.261V51.568H290.261ZM353.909 51.568H369.909V35.568H353.909V51.568ZM353.909 214V230H369.909V214H353.909ZM290.261 214H274.261V230H290.261V214ZM290.261 191.824H306.261L276.173 184.238L290.261 191.824ZM272.693 209.68L280.403 223.699L280.537 223.626L280.668 223.551L272.693 209.68ZM211.061 206.224L202.244 219.575L202.332 219.634L202.421 219.691L211.061 206.224ZM186.869 177.424L172.303 184.045L172.364 184.179L172.427 184.312L186.869 177.424ZM283.637 112.624L295.412 101.791V101.791L283.637 112.624ZM249.653 112.624L237.878 101.791L237.878 101.791L249.653 112.624ZM194.229 132.784C194.229 117.463 196.812 105.068 201.396 95.1369L172.341 81.7271C165.405 96.7557 162.229 113.929 162.229 132.784H194.229ZM201.351 95.2342C206.228 84.8501 212.44 77.7563 219.7 73.0991L202.421 46.1649C189.329 54.5637 179.413 66.6699 172.387 81.6298L201.351 95.2342ZM219.878 72.9834C227.332 68.0611 235.666 65.552 245.333 65.552V33.552C229.655 33.552 215.142 37.7629 202.244 46.2806L219.878 72.9834ZM245.333 65.552C253.633 65.552 259.892 67.2718 264.717 70.0465L280.668 42.3055C270.134 36.2482 258.153 33.552 245.333 33.552V65.552ZM264.982 70.1954C270.048 72.982 273.649 76.6422 276.173 81.3296L304.348 66.1584C298.808 55.8698 290.697 47.818 280.403 42.1565L264.982 70.1954ZM306.261 73.744V51.568H274.261V73.744H306.261ZM290.261 67.568H353.909V35.568H290.261V67.568ZM337.909 51.568V214H369.909V51.568H337.909ZM353.909 198H290.261V230H353.909V198ZM306.261 214V191.824H274.261V214H306.261ZM276.173 184.238C273.614 188.991 269.927 192.814 264.717 195.81L280.668 223.551C290.818 217.714 298.843 209.633 304.348 199.41L276.173 184.238ZM264.982 195.661C260.103 198.344 253.746 200.016 245.333 200.016V232.016C258.039 232.016 269.922 229.464 280.403 223.699L264.982 195.661ZM245.333 200.016C235.569 200.016 227.171 197.549 219.7 192.757L202.421 219.691C215.303 227.955 229.753 232.016 245.333 232.016V200.016ZM219.878 192.873C212.441 187.962 206.181 180.75 201.31 170.536L172.427 184.312C179.46 199.058 189.328 211.046 202.244 219.575L219.878 192.873ZM201.435 170.803C196.809 160.628 194.229 148.096 194.229 132.784H162.229C162.229 151.648 165.408 168.876 172.303 184.045L201.435 170.803ZM306.261 132.784C306.261 121.463 303.329 110.397 295.412 101.791L271.862 123.457C272.776 124.451 274.261 126.825 274.261 132.784H306.261ZM295.412 101.791C287.768 93.4829 277.731 89.424 266.645 89.424V121.424C269.383 121.424 270.673 122.165 271.862 123.457L295.412 101.791ZM266.645 89.424C255.559 89.424 245.521 93.4829 237.878 101.791L261.428 123.457C262.616 122.165 263.907 121.424 266.645 121.424V89.424ZM237.878 101.791C229.96 110.397 227.029 121.463 227.029 132.784H259.029C259.029 126.825 260.513 124.451 261.428 123.457L237.878 101.791ZM227.029 132.784C227.029 144.105 229.96 155.171 237.878 163.777L261.428 142.111C260.513 141.117 259.029 138.743 259.029 132.784H227.029ZM237.878 163.777C245.521 172.085 255.559 176.144 266.645 176.144V144.144C263.907 144.144 262.616 143.403 261.428 142.111L237.878 163.777ZM266.645 176.144C277.731 176.144 287.768 172.085 295.412 163.777L271.862 142.111C270.673 143.403 269.383 144.144 266.645 144.144V176.144ZM295.412 163.777C303.329 155.171 306.261 144.105 306.261 132.784H274.261C274.261 138.743 272.776 141.117 271.862 142.111L295.412 163.777ZM382.619 88.432L368.137 81.6298L368.114 81.6784L368.091 81.7271L382.619 88.432ZM406.811 59.632L415.45 73.0991L415.539 73.0419L415.628 72.9834L406.811 59.632ZM468.155 56.176L460.027 69.9578L460.234 70.0798L460.444 70.1954L468.155 56.176ZM485.723 73.744L471.635 81.3296L501.723 73.744H485.723ZM485.723 0.879997V-15.12H469.723V0.879997H485.723ZM549.659 0.879997H565.659V-15.12H549.659V0.879997ZM549.659 214V230H565.659V214H549.659ZM485.723 214H469.723V230H485.723V214ZM485.723 191.824H501.723L471.635 184.238L485.723 191.824ZM468.155 209.68L476.016 223.616L476.073 223.583L476.13 223.551L468.155 209.68ZM406.811 206.224L397.994 219.575L398.082 219.634L398.171 219.691L406.811 206.224ZM382.619 177.424L368.053 184.045L368.114 184.179L368.177 184.312L382.619 177.424ZM479.387 112.624L491.162 101.791V101.791L479.387 112.624ZM445.403 112.624L433.628 101.791V101.791L445.403 112.624ZM389.979 132.784C389.979 117.463 392.562 105.068 397.146 95.1369L368.091 81.7271C361.155 96.7557 357.979 113.929 357.979 132.784H389.979ZM397.101 95.2342C401.978 84.8501 408.19 77.7563 415.45 73.0991L398.171 46.1649C385.079 54.5637 375.163 66.6699 368.137 81.6298L397.101 95.2342ZM415.628 72.9834C423.082 68.0611 431.416 65.552 441.083 65.552V33.552C425.405 33.552 410.892 37.7629 397.994 46.2806L415.628 72.9834ZM441.083 65.552C449.397 65.552 455.481 67.2768 460.027 69.9578L476.283 42.3941C465.853 36.2432 453.888 33.552 441.083 33.552V65.552ZM460.444 70.1954C465.51 72.982 469.111 76.6422 471.635 81.3296L499.81 66.1584C494.27 55.8698 486.159 47.818 475.865 42.1565L460.444 70.1954ZM501.723 73.744V0.879997H469.723V73.744H501.723ZM485.723 16.88H549.659V-15.12H485.723V16.88ZM533.659 0.879997V214H565.659V0.879997H533.659ZM549.659 198H485.723V230H549.659V198ZM501.723 214V191.824H469.723V214H501.723ZM471.635 184.238C469.076 188.991 465.389 192.814 460.179 195.81L476.13 223.551C486.28 217.714 494.305 209.633 499.81 199.41L471.635 184.238ZM460.294 195.744C455.695 198.339 449.512 200.016 441.083 200.016V232.016C453.774 232.016 465.639 229.469 476.016 223.616L460.294 195.744ZM441.083 200.016C431.319 200.016 422.921 197.549 415.45 192.757L398.171 219.691C411.053 227.955 425.503 232.016 441.083 232.016V200.016ZM415.628 192.873C408.191 187.962 401.931 180.75 397.06 170.536L368.177 184.312C375.21 199.058 385.078 211.046 397.994 219.575L415.628 192.873ZM397.185 170.803C392.559 160.628 389.979 148.096 389.979 132.784H357.979C357.979 151.648 361.158 168.876 368.053 184.045L397.185 170.803ZM502.011 132.784C502.011 121.463 499.079 110.397 491.162 101.791L467.612 123.457C468.526 124.451 470.011 126.825 470.011 132.784H502.011ZM491.162 101.791C483.518 93.4829 473.481 89.424 462.395 89.424V121.424C465.133 121.424 466.423 122.165 467.612 123.457L491.162 101.791ZM462.395 89.424C451.309 89.424 441.271 93.4829 433.628 101.791L457.178 123.457C458.366 122.165 459.657 121.424 462.395 121.424V89.424ZM433.628 101.791C425.71 110.397 422.779 121.463 422.779 132.784H454.779C454.779 126.825 456.263 124.451 457.178 123.457L433.628 101.791ZM422.779 132.784C422.779 144.105 425.71 155.171 433.628 163.777L457.178 142.111C456.263 141.117 454.779 138.743 454.779 132.784H422.779ZM433.628 163.777C441.271 172.085 451.309 176.144 462.395 176.144V144.144C459.657 144.144 458.366 143.403 457.178 142.111L433.628 163.777ZM462.395 176.144C473.481 176.144 483.518 172.085 491.162 163.777L467.612 142.111C466.423 143.403 465.133 144.144 462.395 144.144V176.144ZM491.162 163.777C499.079 155.171 502.011 144.105 502.011 132.784H470.011C470.011 138.743 468.526 141.117 467.612 142.111L491.162 163.777ZM761.825 51.568L776.508 57.9238L786.185 35.568H761.825V51.568ZM657.857 291.76V307.76H668.366L672.54 298.116L657.857 291.76ZM587.873 291.76L573.429 284.877L562.525 307.76H587.873V291.76ZM628.769 205.936L643.213 212.819L646.36 206.213L643.422 199.511L628.769 205.936ZM561.089 51.568V35.568H536.604L546.435 57.9926L561.089 51.568ZM632.225 51.568L647.227 46.0076L643.358 35.568H632.225V51.568ZM662.753 133.936L647.75 139.496L663.267 181.363L677.873 139.17L662.753 133.936ZM691.265 51.568V35.568H679.872L676.145 46.3342L691.265 51.568ZM747.141 45.2122L643.173 285.404L672.54 298.116L776.508 57.9238L747.141 45.2122ZM657.857 275.76H587.873V307.76H657.857V275.76ZM602.317 298.643L643.213 212.819L614.325 199.053L573.429 284.877L602.317 298.643ZM643.422 199.511L575.742 45.1434L546.435 57.9926L614.115 212.361L643.422 199.511ZM561.089 67.568H632.225V35.568H561.089V67.568ZM617.222 57.1284L647.75 139.496L677.755 128.376L647.227 46.0076L617.222 57.1284ZM677.873 139.17L706.385 56.8018L676.145 46.3342L647.633 128.702L677.873 139.17ZM691.265 67.568H761.825V35.568H691.265V67.568Z" fill="#448AFF"/>
</svg>
