<svg width="59" height="61" viewBox="0 0 59 61" fill="none" xmlns="http://www.w3.org/2000/svg">
<path d="M19.7341 47.3465C19.7341 47.5848 19.4605 47.7754 19.1155 47.7754C18.723 47.8111 18.4494 47.6205 18.4494 47.3465C18.4494 47.1082 18.723 46.9176 19.0679 46.9176C19.4248 46.8818 19.7341 47.0725 19.7341 47.3465ZM16.0347 46.8104C15.9514 47.0486 16.1893 47.3227 16.5462 47.3941C16.8554 47.5133 17.2123 47.3941 17.2837 47.1559C17.355 46.9176 17.129 46.6436 16.7722 46.5363C16.4629 46.4529 16.1179 46.5721 16.0347 46.8104ZM21.2923 46.6078C20.9474 46.6912 20.7095 46.9176 20.7452 47.1916C20.7808 47.4299 21.0901 47.5848 21.447 47.5014C21.7919 47.418 22.0298 47.1916 21.9942 46.9533C21.9585 46.727 21.6373 46.5721 21.2923 46.6078ZM29.1194 0.953125C12.6208 0.953125 0 13.4986 0 30.0234C0 43.2361 8.30282 54.5426 20.1623 58.5219C21.6849 58.7959 22.2202 57.8547 22.2202 57.0803C22.2202 56.3416 22.1845 52.267 22.1845 49.765C22.1845 49.765 13.8579 51.5521 12.1093 46.2146C12.1093 46.2146 10.7532 42.7477 8.80242 41.8541C8.80242 41.8541 6.07843 39.9836 8.99274 40.0193C8.99274 40.0193 11.9546 40.2576 13.5843 43.0932C16.1893 47.692 20.5548 46.3695 22.2558 45.5832C22.5294 43.677 23.3026 42.3545 24.1591 41.5682C17.5097 40.8295 10.8008 39.8645 10.8008 28.4031C10.8008 25.1268 11.7048 23.4826 13.6081 21.3857C13.2988 20.6113 12.2877 17.4184 13.9173 13.2961C16.4034 12.5217 22.125 16.5129 22.125 16.5129C24.504 15.8457 27.0615 15.5002 29.5952 15.5002C32.1288 15.5002 34.6863 15.8457 37.0653 16.5129C37.0653 16.5129 42.7869 12.5098 45.273 13.2961C46.9026 17.4303 45.8915 20.6113 45.5823 21.3857C47.4855 23.4945 48.6512 25.1387 48.6512 28.4031C48.6512 39.9002 41.645 40.8176 34.9956 41.5682C36.0899 42.5094 37.0177 44.2965 37.0177 47.0963C37.0177 51.1113 36.9821 56.0795 36.9821 57.0564C36.9821 57.8309 37.5292 58.7721 39.0399 58.498C50.9351 54.5426 59 43.2361 59 30.0234C59 13.4986 45.6179 0.953125 29.1194 0.953125ZM11.5621 42.0447C11.4075 42.1639 11.4431 42.4379 11.6454 42.6643C11.8357 42.8549 12.1093 42.9383 12.2639 42.7834C12.4185 42.6643 12.3829 42.3902 12.1806 42.1639C11.9903 41.9732 11.7167 41.8898 11.5621 42.0447ZM10.2774 41.0797C10.1942 41.2346 10.3131 41.4252 10.551 41.5443C10.7413 41.6635 10.9792 41.6277 11.0625 41.4609C11.1458 41.3061 11.0268 41.1154 10.7889 40.9963C10.551 40.9248 10.3607 40.9605 10.2774 41.0797ZM14.1315 45.3211C13.9411 45.476 14.0125 45.8334 14.2861 46.0598C14.5597 46.3338 14.9046 46.3695 15.0593 46.1789C15.2139 46.024 15.1425 45.6666 14.9046 45.4402C14.6429 45.1662 14.2861 45.1305 14.1315 45.3211ZM12.7754 43.5697C12.5851 43.6889 12.5851 43.9986 12.7754 44.2727C12.9657 44.5467 13.2869 44.6658 13.4415 44.5467C13.6319 44.3918 13.6319 44.082 13.4415 43.808C13.275 43.534 12.9657 43.4148 12.7754 43.5697Z" fill="white"/>
</svg>
