<svg width="65" height="74" viewBox="0 0 65 74" fill="none" xmlns="http://www.w3.org/2000/svg">
<path d="M14.5496 69.7486H1.07366V26.5193H14.5496V69.7486ZM7.80435 20.6224C3.4952 20.6224 0 17.0669 0 12.7743C3.08431e-08 10.7125 0.822242 8.73502 2.28584 7.27705C3.74944 5.81908 5.73451 5 7.80435 5C9.8742 5 11.8593 5.81908 13.3229 7.27705C14.7865 8.73502 15.6087 10.7125 15.6087 12.7743C15.6087 17.0669 12.1121 20.6224 7.80435 20.6224ZM64.9855 69.7486H51.5386V48.7048C51.5386 43.6896 51.4371 37.2579 44.5323 37.2579C37.5259 37.2579 36.4522 42.7068 36.4522 48.3435V69.7486H22.9908V26.5193H35.9154V32.4161H36.104C37.9031 29.0197 42.2979 25.4353 48.8545 25.4353C62.4929 25.4353 65 34.3818 65 46.0021V69.7486H64.9855Z" fill="white"/>
</svg>
