<svg width="55" height="55" viewBox="0 0 55 55" fill="none" xmlns="http://www.w3.org/2000/svg">
<g clip-path="url(#clip0_232_227)">
<path d="M53.4306 38.8652L41.3993 33.709C40.8854 33.4899 40.3141 33.4438 39.7717 33.5775C39.2292 33.7111 38.7448 34.0174 38.3915 34.4502L33.0634 40.96C24.7014 37.0174 17.9719 30.2879 14.0293 21.9259L20.5391 16.5978C20.9727 16.2451 21.2796 15.7607 21.4134 15.218C21.5471 14.6753 21.5004 14.1037 21.2803 13.5899L16.124 1.55869C15.8824 1.00484 15.4552 0.552629 14.9159 0.28005C14.3766 0.00747038 13.7591 -0.068397 13.1699 0.0655299L1.99805 2.64365C1.42997 2.77484 0.923125 3.0947 0.560243 3.55103C0.197361 4.00736 -0.000130862 4.57322 6.50569e-08 5.15625C6.50569e-08 32.71 22.333 55 49.8438 55C50.427 55.0004 50.9931 54.803 51.4496 54.4401C51.9062 54.0772 52.2262 53.5702 52.3574 53.002L54.9356 41.8301C55.0686 41.238 54.9911 40.618 54.7165 40.0769C54.4418 39.5358 53.9871 39.1073 53.4306 38.8652V38.8652Z" fill="white"/>
</g>
<defs>
<clipPath id="clip0_232_227">
<rect width="55" height="55" fill="white"/>
</clipPath>
</defs>
</svg>
