<svg width="231" height="25" viewBox="0 0 231 25" fill="none" xmlns="http://www.w3.org/2000/svg">
<path d="M13.608 1.152V4.44H9.144V18H5.04V4.44H0.576V1.152H13.608ZM27.8597 4.464C29.3957 4.464 30.6277 4.976 31.5557 6C32.4837 7.008 32.9477 8.4 32.9477 10.176V18H28.8677V10.728C28.8677 9.832 28.6357 9.136 28.1717 8.64C27.7077 8.144 27.0837 7.896 26.2997 7.896C25.5157 7.896 24.8917 8.144 24.4277 8.64C23.9637 9.136 23.7317 9.832 23.7317 10.728V18H19.6277V0.24H23.7317V6.408C24.1477 5.816 24.7157 5.344 25.4357 4.992C26.1557 4.64 26.9637 4.464 27.8597 4.464ZM52.3836 11.088C52.3836 11.472 52.3596 11.872 52.3116 12.288H43.0236C43.0876 13.12 43.3516 13.76 43.8156 14.208C44.2956 14.64 44.8796 14.856 45.5676 14.856C46.5916 14.856 47.3036 14.424 47.7036 13.56H52.0716C51.8476 14.44 51.4396 15.232 50.8476 15.936C50.2716 16.64 49.5436 17.192 48.6636 17.592C47.7836 17.992 46.7996 18.192 45.7116 18.192C44.3996 18.192 43.2316 17.912 42.2076 17.352C41.1836 16.792 40.3836 15.992 39.8076 14.952C39.2316 13.912 38.9436 12.696 38.9436 11.304C38.9436 9.912 39.2236 8.696 39.7836 7.656C40.3596 6.616 41.1596 5.816 42.1836 5.256C43.2076 4.696 44.3836 4.416 45.7116 4.416C47.0076 4.416 48.1596 4.688 49.1676 5.232C50.1756 5.776 50.9596 6.552 51.5196 7.56C52.0956 8.568 52.3836 9.744 52.3836 11.088ZM48.1836 10.008C48.1836 9.304 47.9436 8.744 47.4636 8.328C46.9836 7.912 46.3836 7.704 45.6636 7.704C44.9756 7.704 44.3916 7.904 43.9116 8.304C43.4476 8.704 43.1596 9.272 43.0476 10.008H48.1836ZM76.1466 18L72.6426 11.64H71.6586V18H67.5546V1.152H74.4426C75.7706 1.152 76.8986 1.384 77.8266 1.848C78.7706 2.312 79.4746 2.952 79.9386 3.768C80.4026 4.568 80.6346 5.464 80.6346 6.456C80.6346 7.576 80.3146 8.576 79.6746 9.456C79.0506 10.336 78.1226 10.96 76.8906 11.328L80.7786 18H76.1466ZM71.6586 8.736H74.2026C74.9546 8.736 75.5146 8.552 75.8826 8.184C76.2666 7.816 76.4586 7.296 76.4586 6.624C76.4586 5.984 76.2666 5.48 75.8826 5.112C75.5146 4.744 74.9546 4.56 74.2026 4.56H71.6586V8.736ZM99.7948 11.088C99.7948 11.472 99.7708 11.872 99.7228 12.288H90.4348C90.4988 13.12 90.7628 13.76 91.2268 14.208C91.7068 14.64 92.2908 14.856 92.9788 14.856C94.0028 14.856 94.7148 14.424 95.1148 13.56H99.4828C99.2588 14.44 98.8508 15.232 98.2588 15.936C97.6828 16.64 96.9548 17.192 96.0748 17.592C95.1948 17.992 94.2108 18.192 93.1228 18.192C91.8108 18.192 90.6428 17.912 89.6188 17.352C88.5948 16.792 87.7948 15.992 87.2188 14.952C86.6428 13.912 86.3548 12.696 86.3548 11.304C86.3548 9.912 86.6348 8.696 87.1948 7.656C87.7708 6.616 88.5708 5.816 89.5948 5.256C90.6188 4.696 91.7948 4.416 93.1228 4.416C94.4188 4.416 95.5708 4.688 96.5788 5.232C97.5868 5.776 98.3708 6.552 98.9308 7.56C99.5068 8.568 99.7948 9.744 99.7948 11.088ZM95.5948 10.008C95.5948 9.304 95.3548 8.744 94.8748 8.328C94.3948 7.912 93.7948 7.704 93.0748 7.704C92.3868 7.704 91.8028 7.904 91.3228 8.304C90.8588 8.704 90.5708 9.272 90.4588 10.008H95.5948ZM105.104 11.28C105.104 9.904 105.36 8.696 105.872 7.656C106.4 6.616 107.112 5.816 108.008 5.256C108.904 4.696 109.904 4.416 111.008 4.416C111.952 4.416 112.776 4.608 113.48 4.992C114.2 5.376 114.752 5.88 115.136 6.504V4.608H119.24V18H115.136V16.104C114.736 16.728 114.176 17.232 113.456 17.616C112.752 18 111.928 18.192 110.984 18.192C109.896 18.192 108.904 17.912 108.008 17.352C107.112 16.776 106.4 15.968 105.872 14.928C105.36 13.872 105.104 12.656 105.104 11.28ZM115.136 11.304C115.136 10.28 114.848 9.472 114.272 8.88C113.712 8.288 113.024 7.992 112.208 7.992C111.392 7.992 110.696 8.288 110.12 8.88C109.56 9.456 109.28 10.256 109.28 11.28C109.28 12.304 109.56 13.12 110.12 13.728C110.696 14.32 111.392 14.616 112.208 14.616C113.024 14.616 113.712 14.32 114.272 13.728C114.848 13.136 115.136 12.328 115.136 11.304ZM125.353 11.28C125.353 9.904 125.609 8.696 126.121 7.656C126.649 6.616 127.361 5.816 128.257 5.256C129.153 4.696 130.153 4.416 131.257 4.416C132.137 4.416 132.937 4.6 133.657 4.968C134.393 5.336 134.969 5.832 135.385 6.456V0.24H139.489V18H135.385V16.08C135.001 16.72 134.449 17.232 133.729 17.616C133.025 18 132.201 18.192 131.257 18.192C130.153 18.192 129.153 17.912 128.257 17.352C127.361 16.776 126.649 15.968 126.121 14.928C125.609 13.872 125.353 12.656 125.353 11.28ZM135.385 11.304C135.385 10.28 135.097 9.472 134.521 8.88C133.961 8.288 133.273 7.992 132.457 7.992C131.641 7.992 130.945 8.288 130.369 8.88C129.809 9.456 129.529 10.256 129.529 11.28C129.529 12.304 129.809 13.12 130.369 13.728C130.945 14.32 131.641 14.616 132.457 14.616C133.273 14.616 133.961 14.32 134.521 13.728C135.097 13.136 135.385 12.328 135.385 11.304ZM160.098 4.608L151.698 24.36H147.282L150.354 17.544L144.906 4.608H149.49L152.586 12.984L155.658 4.608H160.098ZM185.076 15.024H178.788L177.78 18H173.484L179.58 1.152H184.332L190.428 18H186.084L185.076 15.024ZM184.02 11.856L181.932 5.688L179.868 11.856H184.02ZM200.347 6.504C200.747 5.88 201.299 5.376 202.003 4.992C202.707 4.608 203.531 4.416 204.475 4.416C205.579 4.416 206.579 4.696 207.475 5.256C208.371 5.816 209.075 6.616 209.587 7.656C210.115 8.696 210.379 9.904 210.379 11.28C210.379 12.656 210.115 13.872 209.587 14.928C209.075 15.968 208.371 16.776 207.475 17.352C206.579 17.912 205.579 18.192 204.475 18.192C203.547 18.192 202.723 18 202.003 17.616C201.299 17.232 200.747 16.736 200.347 16.128V24.384H196.243V4.608H200.347V6.504ZM206.203 11.28C206.203 10.256 205.915 9.456 205.339 8.88C204.779 8.288 204.083 7.992 203.251 7.992C202.435 7.992 201.739 8.288 201.163 8.88C200.603 9.472 200.323 10.28 200.323 11.304C200.323 12.328 200.603 13.136 201.163 13.728C201.739 14.32 202.435 14.616 203.251 14.616C204.067 14.616 204.763 14.32 205.339 13.728C205.915 13.12 206.203 12.304 206.203 11.28ZM220.596 6.504C220.996 5.88 221.548 5.376 222.252 4.992C222.956 4.608 223.78 4.416 224.724 4.416C225.828 4.416 226.828 4.696 227.724 5.256C228.62 5.816 229.324 6.616 229.836 7.656C230.364 8.696 230.628 9.904 230.628 11.28C230.628 12.656 230.364 13.872 229.836 14.928C229.324 15.968 228.62 16.776 227.724 17.352C226.828 17.912 225.828 18.192 224.724 18.192C223.796 18.192 222.972 18 222.252 17.616C221.548 17.232 220.996 16.736 220.596 16.128V24.384H216.492V4.608H220.596V6.504ZM226.452 11.28C226.452 10.256 226.164 9.456 225.588 8.88C225.028 8.288 224.332 7.992 223.5 7.992C222.684 7.992 221.988 8.288 221.412 8.88C220.852 9.472 220.572 10.28 220.572 11.304C220.572 12.328 220.852 13.136 221.412 13.728C221.988 14.32 222.684 14.616 223.5 14.616C224.316 14.616 225.012 14.32 225.588 13.728C226.164 13.12 226.452 12.304 226.452 11.28Z" fill="black"/>
<path d="M13.608 1.152H15.608V-0.848001H13.608V1.152ZM13.608 4.44V6.44H15.608V4.44H13.608ZM9.144 4.44V2.44H7.144V4.44H9.144ZM9.144 18V20H11.144V18H9.144ZM5.04 18H3.04V20H5.04V18ZM5.04 4.44H7.04V2.44H5.04V4.44ZM0.576 4.44H-1.424V6.44H0.576V4.44ZM0.576 1.152V-0.848001H-1.424V1.152H0.576ZM11.608 1.152V4.44H15.608V1.152H11.608ZM13.608 2.44H9.144V6.44H13.608V2.44ZM7.144 4.44V18H11.144V4.44H7.144ZM9.144 16H5.04V20H9.144V16ZM7.04 18V4.44H3.04V18H7.04ZM5.04 2.44H0.576V6.44H5.04V2.44ZM2.576 4.44V1.152H-1.424V4.44H2.576ZM0.576 3.152H13.608V-0.848001H0.576V3.152ZM31.5557 6L30.0737 7.34304L30.079 7.34885L30.0843 7.35462L31.5557 6ZM32.9477 18V20H34.9477V18H32.9477ZM28.8677 18H26.8677V20H28.8677V18ZM28.1717 8.64L26.7111 10.0063L26.7111 10.0063L28.1717 8.64ZM24.4277 8.64L25.8882 10.0063L25.8882 10.0063L24.4277 8.64ZM23.7317 18V20H25.7317V18H23.7317ZM19.6277 18H17.6277V20H19.6277V18ZM19.6277 0.24V-1.76H17.6277V0.24H19.6277ZM23.7317 0.24H25.7317V-1.76H23.7317V0.24ZM23.7317 6.408H21.7317V12.7327L25.3681 7.55789L23.7317 6.408ZM25.4357 4.992L24.5573 3.19523L24.5573 3.19523L25.4357 4.992ZM27.8597 6.464C28.9012 6.464 29.5695 6.78662 30.0737 7.34304L33.0377 4.65696C31.6859 3.16538 29.8902 2.464 27.8597 2.464V6.464ZM30.0843 7.35462C30.5812 7.89434 30.9477 8.74867 30.9477 10.176H34.9477C34.9477 8.05133 34.3862 6.12166 33.0271 4.64538L30.0843 7.35462ZM30.9477 10.176V18H34.9477V10.176H30.9477ZM32.9477 16H28.8677V20H32.9477V16ZM30.8677 18V10.728H26.8677V18H30.8677ZM30.8677 10.728C30.8677 9.49089 30.5418 8.246 29.6322 7.27368L26.7111 10.0063C26.7296 10.026 26.8677 10.1731 26.8677 10.728H30.8677ZM29.6322 7.27369C28.7306 6.30986 27.5437 5.896 26.2997 5.896V9.896C26.6236 9.896 26.6848 9.97814 26.7111 10.0063L29.6322 7.27369ZM26.2997 5.896C25.0556 5.896 23.8688 6.30986 22.9671 7.27369L25.8882 10.0063C25.9146 9.97814 25.9757 9.896 26.2997 9.896V5.896ZM22.9671 7.27368C22.0576 8.246 21.7317 9.49089 21.7317 10.728H25.7317C25.7317 10.1731 25.8698 10.026 25.8882 10.0063L22.9671 7.27368ZM21.7317 10.728V18H25.7317V10.728H21.7317ZM23.7317 16H19.6277V20H23.7317V16ZM21.6277 18V0.24H17.6277V18H21.6277ZM19.6277 2.24H23.7317V-1.76H19.6277V2.24ZM21.7317 0.24V6.408H25.7317V0.24H21.7317ZM25.3681 7.55789C25.5698 7.27085 25.864 7.00884 26.3141 6.78877L24.5573 3.19523C23.5674 3.67916 22.7256 4.36115 22.0953 5.25811L25.3681 7.55789ZM26.3141 6.78877C26.7298 6.58555 27.2319 6.464 27.8597 6.464V2.464C26.6955 2.464 25.5816 2.69445 24.5573 3.19523L26.3141 6.78877ZM52.3116 12.288V14.288H54.0941L54.2984 12.5172L52.3116 12.288ZM43.0236 12.288V10.288H40.8638L41.0295 12.4414L43.0236 12.288ZM43.8156 14.208L42.4264 15.6468L42.4516 15.6711L42.4776 15.6946L43.8156 14.208ZM47.7036 13.56V11.56H46.4255L45.8886 12.7198L47.7036 13.56ZM52.0716 13.56L54.0098 14.0534L54.6444 11.56H52.0716V13.56ZM50.8476 15.936L49.3168 14.6488L49.3082 14.6591L49.2996 14.6695L50.8476 15.936ZM48.6636 17.592L49.4912 19.4127L48.6636 17.592ZM42.2076 17.352L41.2479 19.1067L41.2479 19.1067L42.2076 17.352ZM39.8076 14.952L41.5571 13.983L41.5571 13.983L39.8076 14.952ZM39.7836 7.656L38.034 6.687L38.0282 6.69737L38.0226 6.7078L39.7836 7.656ZM42.1836 5.256L43.1432 7.01074L43.1432 7.01074L42.1836 5.256ZM49.1676 5.232L48.2177 6.99204L48.2177 6.99204L49.1676 5.232ZM51.5196 7.56L49.7712 8.53129L49.7771 8.54182L49.7831 8.55228L51.5196 7.56ZM48.1836 10.008V12.008H50.1836V10.008H48.1836ZM47.4636 8.328L48.7734 6.81662L48.7734 6.81662L47.4636 8.328ZM43.9116 8.304L42.6312 6.76756L42.6183 6.77826L42.6057 6.78918L43.9116 8.304ZM43.0476 10.008L41.0703 9.70712L40.7202 12.008H43.0476V10.008ZM50.3836 11.088C50.3836 11.3889 50.3647 11.7121 50.3247 12.0588L54.2984 12.5172C54.3544 12.0319 54.3836 11.5551 54.3836 11.088H50.3836ZM52.3116 10.288H43.0236V14.288H52.3116V10.288ZM41.0295 12.4414C41.1197 13.6144 41.5169 14.7687 42.4264 15.6468L45.2047 12.7692C45.1863 12.7513 45.0554 12.6256 45.0177 12.1346L41.0295 12.4414ZM42.4776 15.6946C43.3503 16.48 44.4207 16.856 45.5676 16.856V12.856C45.3384 12.856 45.2409 12.8 45.1535 12.7214L42.4776 15.6946ZM45.5676 16.856C46.3616 16.856 47.1736 16.6869 47.907 16.2419C48.6498 15.7912 49.1762 15.1397 49.5185 14.4002L45.8886 12.7198C45.8572 12.7877 45.8335 12.8173 45.8272 12.8246C45.8223 12.8304 45.8249 12.8265 45.8321 12.8221C45.8535 12.8091 45.7975 12.856 45.5676 12.856V16.856ZM47.7036 15.56H52.0716V11.56H47.7036V15.56ZM50.1334 13.0666C49.9847 13.6508 49.7176 14.1723 49.3168 14.6488L52.3783 17.2232C53.1616 16.2917 53.7105 15.2292 54.0098 14.0534L50.1334 13.0666ZM49.2996 14.6695C48.9301 15.1211 48.4544 15.4901 47.836 15.7713L49.4912 19.4127C50.6327 18.8939 51.613 18.1589 52.3955 17.2025L49.2996 14.6695ZM47.836 15.7713C47.2467 16.0391 46.55 16.192 45.7116 16.192V20.192C47.0491 20.192 48.3204 19.9449 49.4912 19.4127L47.836 15.7713ZM45.7116 16.192C44.6926 16.192 43.8619 15.9772 43.1672 15.5973L41.2479 19.1067C42.6012 19.8468 44.1065 20.192 45.7116 20.192V16.192ZM43.1672 15.5973C42.4821 15.2226 41.9532 14.6981 41.5571 13.983L38.058 15.921C38.8139 17.2859 39.885 18.3614 41.2479 19.1067L43.1672 15.5973ZM41.5571 13.983C41.1715 13.2866 40.9436 12.4152 40.9436 11.304H36.9436C36.9436 12.9768 37.2917 14.5374 38.058 15.921L41.5571 13.983ZM40.9436 11.304C40.9436 10.1839 41.1672 9.30483 41.5445 8.6042L38.0226 6.7078C37.2799 8.08717 36.9436 9.64014 36.9436 11.304H40.9436ZM41.5331 8.625C41.9292 7.90993 42.4581 7.3854 43.1432 7.01074L41.2239 3.50126C39.861 4.2466 38.7899 5.32207 38.034 6.687L41.5331 8.625ZM43.1432 7.01074C43.8344 6.63272 44.6721 6.416 45.7116 6.416V2.416C44.095 2.416 42.5807 2.75928 41.2239 3.50126L43.1432 7.01074ZM45.7116 6.416C46.7201 6.416 47.5381 6.62526 48.2177 6.99204L50.1174 3.47196C48.7811 2.75074 47.295 2.416 45.7116 2.416V6.416ZM48.2177 6.99204C48.8873 7.35344 49.3953 7.85465 49.7712 8.53129L53.2679 6.58871C52.5238 5.24935 51.4638 4.19856 50.1174 3.47196L48.2177 6.99204ZM49.7831 8.55228C50.1608 9.2133 50.3836 10.0366 50.3836 11.088H54.3836C54.3836 9.45143 54.0303 7.9227 53.256 6.56772L49.7831 8.55228ZM50.1836 10.008C50.1836 8.7945 49.7424 7.65639 48.7734 6.81662L46.1537 9.83938C46.1675 9.8513 46.1708 9.85653 46.1691 9.8543C46.1685 9.85352 46.1676 9.85215 46.1666 9.85045C46.1657 9.84876 46.1652 9.84773 46.1653 9.84784C46.1653 9.84797 46.1663 9.85016 46.1677 9.85498C46.1692 9.85984 46.1714 9.86802 46.1737 9.88008C46.1782 9.90419 46.1836 9.94557 46.1836 10.008H50.1836ZM48.7734 6.81662C47.8812 6.04333 46.7962 5.704 45.6636 5.704V9.704C45.9709 9.704 46.086 9.78067 46.1537 9.83938L48.7734 6.81662ZM45.6636 5.704C44.5583 5.704 43.5077 6.03716 42.6312 6.76756L45.1919 9.84044C45.2755 9.77084 45.3928 9.704 45.6636 9.704V5.704ZM42.6057 6.78918C41.7067 7.56418 41.238 8.60515 41.0703 9.70712L45.0248 10.3089C45.0811 9.93885 45.1884 9.84382 45.2174 9.81882L42.6057 6.78918ZM43.0476 12.008H48.1836V8.008H43.0476V12.008ZM76.1466 18L74.3948 18.9651L74.965 20H76.1466V18ZM72.6426 11.64L74.3943 10.6749L73.8241 9.64H72.6426V11.64ZM71.6586 11.64V9.64H69.6586V11.64H71.6586ZM71.6586 18V20H73.6586V18H71.6586ZM67.5546 18H65.5546V20H67.5546V18ZM67.5546 1.152V-0.848001H65.5546V1.152H67.5546ZM77.8266 1.848L76.9321 3.6369L76.9443 3.6429L77.8266 1.848ZM79.9386 3.768L78.2 4.7566L78.2042 4.76404L78.2085 4.77144L79.9386 3.768ZM79.6746 9.456L78.0571 8.27966L78.05 8.28936L78.0431 8.29914L79.6746 9.456ZM76.8906 11.328L76.3181 9.41166L73.8829 10.1391L75.1626 12.335L76.8906 11.328ZM80.7786 18V20H84.2588L82.5066 16.993L80.7786 18ZM71.6586 8.736H69.6586V10.736H71.6586V8.736ZM75.8826 8.184L74.4987 6.74002L74.4834 6.75474L74.4683 6.76979L75.8826 8.184ZM75.8826 5.112L74.4683 6.52621L74.4834 6.54126L74.4987 6.55598L75.8826 5.112ZM71.6586 4.56V2.56H69.6586V4.56H71.6586ZM77.8983 17.0349L74.3943 10.6749L70.8908 12.6051L74.3948 18.9651L77.8983 17.0349ZM72.6426 9.64H71.6586V13.64H72.6426V9.64ZM69.6586 11.64V18H73.6586V11.64H69.6586ZM71.6586 16H67.5546V20H71.6586V16ZM69.5546 18V1.152H65.5546V18H69.5546ZM67.5546 3.152H74.4426V-0.848001H67.5546V3.152ZM74.4426 3.152C75.5443 3.152 76.3485 3.34503 76.9321 3.63685L78.721 0.0591445C77.4486 -0.577035 75.9968 -0.848001 74.4426 -0.848001V3.152ZM76.9443 3.6429C77.5735 3.95218 77.9576 4.33034 78.2 4.7566L81.6771 2.77939C80.9915 1.57366 79.9676 0.671822 78.7088 0.0531014L76.9443 3.6429ZM78.2085 4.77144C78.4828 5.24446 78.6346 5.78993 78.6346 6.456H82.6346C82.6346 5.13807 82.3223 3.89154 81.6686 2.76456L78.2085 4.77144ZM78.6346 6.456C78.6346 7.16658 78.4408 7.75207 78.0571 8.27966L81.292 10.6323C82.1883 9.39993 82.6346 7.98542 82.6346 6.456H78.6346ZM78.0431 8.29914C77.7245 8.7485 77.2073 9.14607 76.3181 9.41166L77.463 13.2443C79.0378 12.7739 80.3767 11.9235 81.306 10.6129L78.0431 8.29914ZM75.1626 12.335L79.0506 19.007L82.5066 16.993L78.6186 10.321L75.1626 12.335ZM80.7786 16H76.1466V20H80.7786V16ZM71.6586 10.736H74.2026V6.736H71.6586V10.736ZM74.2026 10.736C75.2483 10.736 76.4142 10.4808 77.2968 9.59821L74.4683 6.76979C74.5338 6.70435 74.5843 6.69069 74.5623 6.69794C74.5305 6.70838 74.422 6.736 74.2026 6.736V10.736ZM77.2664 9.62798C78.1418 8.78902 78.4586 7.68898 78.4586 6.624H74.4586C74.4586 6.77226 74.4372 6.82852 74.4384 6.82525C74.4392 6.82301 74.4444 6.80999 74.4566 6.79112C74.469 6.77198 74.4839 6.75427 74.4987 6.74002L77.2664 9.62798ZM78.4586 6.624C78.4586 5.55815 78.1226 4.48854 77.2664 3.66802L74.4987 6.55598C74.4893 6.54689 74.4772 6.53316 74.4658 6.51582C74.4544 6.49857 74.4481 6.48464 74.4456 6.47799C74.4404 6.46451 74.4586 6.50292 74.4586 6.624H78.4586ZM77.2968 3.69779C76.4142 2.81524 75.2483 2.56 74.2026 2.56V6.56C74.422 6.56 74.5305 6.58762 74.5623 6.59806C74.5843 6.60531 74.5338 6.59165 74.4683 6.52621L77.2968 3.69779ZM74.2026 2.56H71.6586V6.56H74.2026V2.56ZM69.6586 4.56V8.736H73.6586V4.56H69.6586ZM99.7228 12.288V14.288H101.505L101.71 12.5172L99.7228 12.288ZM90.4348 12.288V10.288H88.2751L88.4407 12.4414L90.4348 12.288ZM91.2268 14.208L89.8376 15.6468L89.8628 15.6711L89.8889 15.6946L91.2268 14.208ZM95.1148 13.56V11.56H93.8368L93.2999 12.7198L95.1148 13.56ZM99.4828 13.56L101.421 14.0534L102.056 11.56H99.4828V13.56ZM98.2588 15.936L96.7281 14.6488L96.7194 14.6591L96.7109 14.6695L98.2588 15.936ZM96.0748 17.592L96.9024 19.4127L96.0748 17.592ZM89.6188 17.352L88.6592 19.1067L88.6592 19.1067L89.6188 17.352ZM87.2188 14.952L88.9684 13.983L88.9684 13.983L87.2188 14.952ZM87.1948 7.656L85.4452 6.687L85.4395 6.69737L85.4339 6.7078L87.1948 7.656ZM89.5948 5.256L90.5544 7.01074L90.5544 7.01074L89.5948 5.256ZM96.5788 5.232L95.629 6.99204L95.629 6.99204L96.5788 5.232ZM98.9308 7.56L97.1825 8.53129L97.1884 8.54182L97.1943 8.55228L98.9308 7.56ZM95.5948 10.008V12.008H97.5948V10.008H95.5948ZM94.8748 8.328L96.1847 6.81662L96.1847 6.81662L94.8748 8.328ZM91.3228 8.304L90.0424 6.76756L90.0296 6.77826L90.0169 6.78918L91.3228 8.304ZM90.4588 10.008L88.4816 9.70712L88.1314 12.008H90.4588V10.008ZM97.7948 11.088C97.7948 11.3889 97.776 11.7121 97.736 12.0588L101.71 12.5172C101.766 12.0319 101.795 11.5551 101.795 11.088H97.7948ZM99.7228 10.288H90.4348V14.288H99.7228V10.288ZM88.4407 12.4414C88.5309 13.6144 88.9281 14.7687 89.8376 15.6468L92.616 12.7692C92.5975 12.7513 92.4667 12.6256 92.4289 12.1346L88.4407 12.4414ZM89.8889 15.6946C90.7615 16.48 91.832 16.856 92.9788 16.856V12.856C92.7497 12.856 92.6521 12.8 92.5647 12.7214L89.8889 15.6946ZM92.9788 16.856C93.7729 16.856 94.5849 16.6869 95.3183 16.2419C96.061 15.7912 96.5874 15.1397 96.9297 14.4002L93.2999 12.7198C93.2684 12.7877 93.2448 12.8173 93.2385 12.8246C93.2335 12.8304 93.2361 12.8265 93.2434 12.8221C93.2648 12.8091 93.2088 12.856 92.9788 12.856V16.856ZM95.1148 15.56H99.4828V11.56H95.1148V15.56ZM97.5446 13.0666C97.3959 13.6508 97.1288 14.1723 96.7281 14.6488L99.7895 17.2232C100.573 16.2917 101.122 15.2292 101.421 14.0534L97.5446 13.0666ZM96.7109 14.6695C96.3414 15.1211 95.8657 15.4901 95.2472 15.7713L96.9024 19.4127C98.0439 18.8939 99.0242 18.1589 99.8067 17.2025L96.7109 14.6695ZM95.2472 15.7713C94.658 16.0391 93.9613 16.192 93.1228 16.192V20.192C94.4604 20.192 95.7317 19.9449 96.9024 19.4127L95.2472 15.7713ZM93.1228 16.192C92.1039 16.192 91.2732 15.9772 90.5784 15.5973L88.6592 19.1067C90.0125 19.8468 91.5177 20.192 93.1228 20.192V16.192ZM90.5784 15.5973C89.8934 15.2226 89.3644 14.6981 88.9684 13.983L85.4692 15.921C86.2252 17.2859 87.2963 18.3614 88.6592 19.1067L90.5784 15.5973ZM88.9684 13.983C88.5827 13.2866 88.3548 12.4152 88.3548 11.304H84.3548C84.3548 12.9768 84.7029 14.5374 85.4692 15.921L88.9684 13.983ZM88.3548 11.304C88.3548 10.1839 88.5785 9.30483 88.9558 8.6042L85.4339 6.7078C84.6911 8.08717 84.3548 9.64014 84.3548 11.304H88.3548ZM88.9444 8.625C89.3404 7.90993 89.8694 7.3854 90.5544 7.01074L88.6352 3.50126C87.2723 4.2466 86.2012 5.32207 85.4452 6.687L88.9444 8.625ZM90.5544 7.01074C91.2457 6.63272 92.0834 6.416 93.1228 6.416V2.416C91.5062 2.416 89.9919 2.75928 88.6352 3.50126L90.5544 7.01074ZM93.1228 6.416C94.1314 6.416 94.9493 6.62526 95.629 6.99204L97.5287 3.47196C96.1923 2.75074 94.7063 2.416 93.1228 2.416V6.416ZM95.629 6.99204C96.2986 7.35344 96.8066 7.85465 97.1825 8.53129L100.679 6.58871C99.935 5.24935 98.875 4.19856 97.5287 3.47196L95.629 6.99204ZM97.1943 8.55228C97.5721 9.2133 97.7948 10.0366 97.7948 11.088H101.795C101.795 9.45143 101.442 7.9227 100.667 6.56772L97.1943 8.55228ZM97.5948 10.008C97.5948 8.7945 97.1536 7.65639 96.1847 6.81662L93.565 9.83938C93.5787 9.8513 93.582 9.85653 93.5804 9.8543C93.5798 9.85352 93.5789 9.85215 93.5779 9.85045C93.5769 9.84876 93.5765 9.84773 93.5765 9.84784C93.5766 9.84797 93.5775 9.85016 93.579 9.85498C93.5804 9.85984 93.5826 9.86802 93.5849 9.88008C93.5895 9.90419 93.5948 9.94557 93.5948 10.008H97.5948ZM96.1847 6.81662C95.2924 6.04333 94.2075 5.704 93.0748 5.704V9.704C93.3821 9.704 93.4972 9.78067 93.565 9.83938L96.1847 6.81662ZM93.0748 5.704C91.9695 5.704 90.9189 6.03716 90.0424 6.76756L92.6032 9.84044C92.6867 9.77084 92.8041 9.704 93.0748 9.704V5.704ZM90.0169 6.78918C89.1179 7.56418 88.6493 8.60515 88.4816 9.70712L92.4361 10.3089C92.4924 9.93885 92.5997 9.84382 92.6287 9.81882L90.0169 6.78918ZM90.4588 12.008H95.5948V8.008H90.4588V12.008ZM105.872 7.656L104.089 6.75061L104.083 6.76159L104.078 6.77263L105.872 7.656ZM108.008 5.256L109.068 6.952L109.068 6.952L108.008 5.256ZM113.48 4.992L112.522 6.74779L112.53 6.75229L112.539 6.7567L113.48 4.992ZM115.136 6.504L113.433 7.55219L117.136 13.5701V6.504H115.136ZM115.136 4.608V2.608H113.136V4.608H115.136ZM119.24 4.608H121.24V2.608H119.24V4.608ZM119.24 18V20H121.24V18H119.24ZM115.136 18H113.136V20H115.136V18ZM115.136 16.104H117.136V9.278L113.452 15.0247L115.136 16.104ZM113.456 17.616L112.515 15.8513L112.506 15.8557L112.498 15.8602L113.456 17.616ZM108.008 17.352L106.926 19.0344L106.937 19.0412L106.948 19.048L108.008 17.352ZM105.872 14.928L104.072 15.8005L104.08 15.817L104.089 15.8334L105.872 14.928ZM114.272 8.88L112.819 10.2544L112.829 10.2646L112.838 10.2747L114.272 8.88ZM110.12 8.88L108.686 7.48529L108.686 7.48584L110.12 8.88ZM110.12 13.728L108.649 15.083L108.667 15.1031L108.686 15.1227L110.12 13.728ZM114.272 13.728L112.838 12.3333L112.829 12.3434L112.819 12.3536L114.272 13.728ZM107.104 11.28C107.104 10.1535 107.313 9.25774 107.666 8.53937L104.078 6.77263C103.407 8.13426 103.104 9.65451 103.104 11.28H107.104ZM107.655 8.56138C108.036 7.8111 108.512 7.29952 109.068 6.952L106.948 3.56C105.712 4.33248 104.764 5.4209 104.089 6.75061L107.655 8.56138ZM109.068 6.952C109.631 6.59981 110.261 6.416 111.008 6.416V2.416C109.547 2.416 108.176 2.79219 106.948 3.56L109.068 6.952ZM111.008 6.416C111.677 6.416 112.16 6.55026 112.522 6.74779L114.438 3.23621C113.392 2.66574 112.227 2.416 111.008 2.416V6.416ZM112.539 6.7567C112.982 6.99317 113.255 7.26379 113.433 7.55219L116.839 5.4558C116.249 4.49621 115.418 3.75883 114.421 3.22729L112.539 6.7567ZM117.136 6.504V4.608H113.136V6.504H117.136ZM115.136 6.608H119.24V2.608H115.136V6.608ZM117.24 4.608V18H121.24V4.608H117.24ZM119.24 16H115.136V20H119.24V16ZM117.136 18V16.104H113.136V18H117.136ZM113.452 15.0247C113.255 15.332 112.964 15.6118 112.515 15.8513L114.397 19.3807C115.388 18.8522 116.217 18.124 116.82 17.1833L113.452 15.0247ZM112.498 15.8602C112.136 16.0577 111.653 16.192 110.984 16.192V20.192C112.203 20.192 113.368 19.9423 114.414 19.3718L112.498 15.8602ZM110.984 16.192C110.259 16.192 109.636 16.0112 109.068 15.656L106.948 19.048C108.172 19.8128 109.533 20.192 110.984 20.192V16.192ZM109.089 15.6696C108.52 15.3037 108.038 14.7769 107.655 14.0226L104.089 15.8334C104.762 17.1591 105.704 18.2483 106.926 19.0344L109.089 15.6696ZM107.672 14.0555C107.312 13.3145 107.104 12.4056 107.104 11.28H103.104C103.104 12.9064 103.407 14.4295 104.072 15.8005L107.672 14.0555ZM117.136 11.304C117.136 9.89077 116.727 8.53549 115.705 7.48529L112.838 10.2747C112.969 10.4085 113.136 10.6692 113.136 11.304H117.136ZM115.725 7.5056C114.786 6.51364 113.573 5.992 112.208 5.992V9.992C112.475 9.992 112.637 10.0624 112.819 10.2544L115.725 7.5056ZM112.208 5.992C110.845 5.992 109.634 6.51165 108.686 7.48529L111.553 10.2747C111.758 10.0644 111.939 9.992 112.208 9.992V5.992ZM108.686 7.48584C107.671 8.53011 107.28 9.88474 107.28 11.28H111.28C111.28 10.6273 111.449 10.3819 111.554 10.2742L108.686 7.48584ZM107.28 11.28C107.28 12.6806 107.672 14.0228 108.649 15.083L111.591 12.373C111.447 12.2172 111.28 11.9274 111.28 11.28H107.28ZM108.686 15.1227C109.634 16.0964 110.845 16.616 112.208 16.616V12.616C111.939 12.616 111.758 12.5436 111.553 12.3333L108.686 15.1227ZM112.208 16.616C113.573 16.616 114.786 16.0944 115.725 15.1024L112.819 12.3536C112.637 12.5456 112.475 12.616 112.208 12.616V16.616ZM115.705 15.1227C116.727 14.0725 117.136 12.7172 117.136 11.304H113.136C113.136 11.9388 112.969 12.1995 112.838 12.3333L115.705 15.1227ZM126.121 7.656L124.338 6.75061L124.332 6.76159L124.327 6.77263L126.121 7.656ZM128.257 5.256L129.317 6.952L129.317 6.952L128.257 5.256ZM133.657 4.968L132.747 6.74887L132.755 6.7529L132.763 6.75685L133.657 4.968ZM135.385 6.456L133.721 7.5654L137.385 13.0616V6.456H135.385ZM135.385 0.24V-1.76H133.385V0.24H135.385ZM139.489 0.24H141.489V-1.76H139.489V0.24ZM139.489 18V20H141.489V18H139.489ZM135.385 18H133.385V20H135.385V18ZM135.385 16.08H137.385V8.85936L133.67 15.051L135.385 16.08ZM133.729 17.616L132.788 15.8513L132.779 15.8557L132.771 15.8602L133.729 17.616ZM128.257 17.352L127.175 19.0344L127.186 19.0412L127.197 19.048L128.257 17.352ZM126.121 14.928L124.321 15.8005L124.329 15.817L124.338 15.8334L126.121 14.928ZM134.521 8.88L133.068 10.2544L133.078 10.2646L133.087 10.2747L134.521 8.88ZM130.369 8.88L128.935 7.48529L128.935 7.48584L130.369 8.88ZM130.369 13.728L128.898 15.083L128.916 15.1031L128.935 15.1227L130.369 13.728ZM134.521 13.728L133.087 12.3333L133.078 12.3434L133.068 12.3536L134.521 13.728ZM127.353 11.28C127.353 10.1535 127.562 9.25774 127.915 8.53937L124.327 6.77263C123.656 8.13426 123.353 9.65451 123.353 11.28H127.353ZM127.904 8.56138C128.285 7.8111 128.761 7.29952 129.317 6.952L127.197 3.56C125.961 4.33248 125.013 5.4209 124.338 6.75061L127.904 8.56138ZM129.317 6.952C129.88 6.59981 130.51 6.416 131.257 6.416V2.416C129.796 2.416 128.425 2.79219 127.197 3.56L129.317 6.952ZM131.257 6.416C131.849 6.416 132.333 6.53734 132.747 6.74887L134.567 3.18713C133.541 2.66266 132.425 2.416 131.257 2.416V6.416ZM132.763 6.75685C133.218 6.98474 133.516 7.2586 133.721 7.5654L137.049 5.3466C136.422 4.40539 135.568 3.68726 134.551 3.17914L132.763 6.75685ZM137.385 6.456V0.24H133.385V6.456H137.385ZM135.385 2.24H139.489V-1.76H135.385V2.24ZM137.489 0.24V18H141.489V0.24H137.489ZM139.489 16H135.385V20H139.489V16ZM137.385 18V16.08H133.385V18H137.385ZM133.67 15.051C133.49 15.3515 133.219 15.6214 132.788 15.8513L134.67 19.3807C135.679 18.8426 136.512 18.0885 137.1 17.109L133.67 15.051ZM132.771 15.8602C132.409 16.0577 131.926 16.192 131.257 16.192V20.192C132.476 20.192 133.641 19.9423 134.687 19.3718L132.771 15.8602ZM131.257 16.192C130.51 16.192 129.88 16.0082 129.317 15.656L127.197 19.048C128.425 19.8158 129.796 20.192 131.257 20.192V16.192ZM129.338 15.6696C128.769 15.3037 128.287 14.7769 127.904 14.0226L124.338 15.8334C125.011 17.1591 125.953 18.2483 127.175 19.0344L129.338 15.6696ZM127.921 14.0555C127.561 13.3145 127.353 12.4056 127.353 11.28H123.353C123.353 12.9064 123.657 14.4295 124.321 15.8005L127.921 14.0555ZM137.385 11.304C137.385 9.89077 136.976 8.53549 135.954 7.48529L133.087 10.2747C133.218 10.4085 133.385 10.6692 133.385 11.304H137.385ZM135.974 7.5056C135.036 6.51364 133.822 5.992 132.457 5.992V9.992C132.724 9.992 132.886 10.0624 133.068 10.2544L135.974 7.5056ZM132.457 5.992C131.094 5.992 129.883 6.51165 128.935 7.48529L131.802 10.2747C132.007 10.0644 132.188 9.992 132.457 9.992V5.992ZM128.935 7.48584C127.92 8.53011 127.529 9.88474 127.529 11.28H131.529C131.529 10.6273 131.698 10.3819 131.803 10.2742L128.935 7.48584ZM127.529 11.28C127.529 12.6806 127.921 14.0228 128.898 15.083L131.84 12.373C131.697 12.2172 131.529 11.9274 131.529 11.28H127.529ZM128.935 15.1227C129.883 16.0964 131.094 16.616 132.457 16.616V12.616C132.188 12.616 132.007 12.5436 131.802 12.3333L128.935 15.1227ZM132.457 16.616C133.822 16.616 135.036 16.0944 135.974 15.1024L133.068 12.3536C132.886 12.5456 132.724 12.616 132.457 12.616V16.616ZM135.954 15.1227C136.976 14.0725 137.385 12.7172 137.385 11.304H133.385C133.385 11.9388 133.218 12.1995 133.087 12.3333L135.954 15.1227ZM160.098 4.608L161.938 5.39071L163.122 2.608H160.098V4.608ZM151.698 24.36V26.36H153.021L153.538 25.1427L151.698 24.36ZM147.282 24.36L145.459 23.5382L144.187 26.36H147.282V24.36ZM150.354 17.544L152.177 18.3658L152.536 17.5711L152.197 16.7677L150.354 17.544ZM144.906 4.608V2.608H141.894L143.063 5.38427L144.906 4.608ZM149.49 4.608L151.366 3.9146L150.883 2.608H149.49V4.608ZM152.586 12.984L150.71 13.6774L152.593 18.7724L154.464 13.6727L152.586 12.984ZM155.658 4.608V2.608H154.261L153.78 3.91933L155.658 4.608ZM158.258 3.82529L149.858 23.5773L153.538 25.1427L161.938 5.39071L158.258 3.82529ZM151.698 22.36H147.282V26.36H151.698V22.36ZM149.105 25.1818L152.177 18.3658L148.531 16.7222L145.459 23.5382L149.105 25.1818ZM152.197 16.7677L146.749 3.83173L143.063 5.38427L148.511 18.3203L152.197 16.7677ZM144.906 6.608H149.49V2.608H144.906V6.608ZM147.614 5.3014L150.71 13.6774L154.462 12.2906L151.366 3.9146L147.614 5.3014ZM154.464 13.6727L157.536 5.29667L153.78 3.91933L150.708 12.2953L154.464 13.6727ZM155.658 6.608H160.098V2.608H155.658V6.608ZM185.076 15.024L186.97 14.3824L186.51 13.024H185.076V15.024ZM178.788 15.024V13.024H177.354L176.894 14.3824L178.788 15.024ZM177.78 18V20H179.214L179.674 18.6416L177.78 18ZM173.484 18L171.603 17.3195L170.633 20H173.484V18ZM179.58 1.152V-0.848001H178.177L177.699 0.471526L179.58 1.152ZM184.332 1.152L186.213 0.471526L185.735 -0.848001H184.332V1.152ZM190.428 18V20H193.279L192.309 17.3195L190.428 18ZM186.084 18L184.19 18.6416L184.65 20H186.084V18ZM184.02 11.856V13.856H186.809L185.914 11.2147L184.02 11.856ZM181.932 5.688L183.826 5.04671L181.921 -0.581754L180.035 5.05333L181.932 5.688ZM179.868 11.856L177.971 11.2213L177.09 13.856H179.868V11.856ZM185.076 13.024H178.788V17.024H185.076V13.024ZM176.894 14.3824L175.886 17.3584L179.674 18.6416L180.682 15.6656L176.894 14.3824ZM177.78 16H173.484V20H177.78V16ZM175.365 18.6805L181.461 1.83247L177.699 0.471526L171.603 17.3195L175.365 18.6805ZM179.58 3.152H184.332V-0.848001H179.58V3.152ZM182.451 1.83247L188.547 18.6805L192.309 17.3195L186.213 0.471526L182.451 1.83247ZM190.428 16H186.084V20H190.428V16ZM187.978 17.3584L186.97 14.3824L183.182 15.6656L184.19 18.6416L187.978 17.3584ZM185.914 11.2147L183.826 5.04671L180.038 6.32929L182.126 12.4973L185.914 11.2147ZM180.035 5.05333L177.971 11.2213L181.765 12.4907L183.829 6.32267L180.035 5.05333ZM179.868 13.856H184.02V9.856H179.868V13.856ZM200.347 6.504H198.347V13.33L202.031 7.58333L200.347 6.504ZM202.003 4.992L201.046 3.23621L201.046 3.23621L202.003 4.992ZM207.475 5.256L206.415 6.952L206.415 6.952L207.475 5.256ZM209.587 7.656L207.793 8.53937L207.798 8.55041L207.804 8.56138L209.587 7.656ZM209.587 14.928L207.798 14.0336L207.793 14.0446L209.587 14.928ZM207.475 17.352L208.535 19.048L208.546 19.0412L208.557 19.0344L207.475 17.352ZM202.003 17.616L201.046 19.3718L201.054 19.3763L201.062 19.3807L202.003 17.616ZM200.347 16.128L202.018 15.0288L198.347 9.4491V16.128H200.347ZM200.347 24.384V26.384H202.347V24.384H200.347ZM196.243 24.384H194.243V26.384H196.243V24.384ZM196.243 4.608V2.608H194.243V4.608H196.243ZM200.347 4.608H202.347V2.608H200.347V4.608ZM205.339 8.88L203.886 10.2544L203.905 10.2746L203.925 10.2942L205.339 8.88ZM201.163 8.88L199.73 7.48529L199.72 7.49538L199.71 7.5056L201.163 8.88ZM201.163 13.728L199.71 15.1024L199.72 15.1126L199.73 15.1227L201.163 13.728ZM205.339 13.728L206.773 15.1227L206.782 15.1132L206.791 15.1035L205.339 13.728ZM202.031 7.58333C202.235 7.26512 202.527 6.98442 202.961 6.74779L201.046 3.23621C200.071 3.76758 199.26 4.49487 198.664 5.42467L202.031 7.58333ZM202.961 6.74779C203.323 6.55026 203.807 6.416 204.475 6.416V2.416C203.256 2.416 202.091 2.66574 201.046 3.23621L202.961 6.74779ZM204.475 6.416C205.222 6.416 205.852 6.59981 206.415 6.952L208.535 3.56C207.307 2.79219 205.937 2.416 204.475 2.416V6.416ZM206.415 6.952C206.965 7.29581 207.429 7.79975 207.793 8.53937L211.382 6.77263C210.722 5.43225 209.777 4.33619 208.535 3.56L206.415 6.952ZM207.804 8.56138C208.166 9.27458 208.379 10.1623 208.379 11.28H212.379C212.379 9.64569 212.065 8.11741 211.371 6.75061L207.804 8.56138ZM208.379 11.28C208.379 12.3968 208.166 13.2978 207.798 14.0336L211.376 15.8224C212.064 14.4462 212.379 12.9152 212.379 11.28H208.379ZM207.793 14.0446C207.427 14.7882 206.957 15.3074 206.394 15.6696L208.557 19.0344C209.785 18.2446 210.724 17.1478 211.382 15.8114L207.793 14.0446ZM206.415 15.656C205.852 16.0082 205.222 16.192 204.475 16.192V20.192C205.937 20.192 207.307 19.8158 208.535 19.048L206.415 15.656ZM204.475 16.192C203.83 16.192 203.337 16.0607 202.944 15.8513L201.062 19.3807C202.109 19.9393 203.265 20.192 204.475 20.192V16.192ZM202.961 15.8602C202.515 15.617 202.22 15.3356 202.018 15.0288L198.676 17.2272C199.275 18.1364 200.084 18.847 201.046 19.3718L202.961 15.8602ZM198.347 16.128V24.384H202.347V16.128H198.347ZM200.347 22.384H196.243V26.384H200.347V22.384ZM198.243 24.384V4.608H194.243V24.384H198.243ZM196.243 6.608H200.347V2.608H196.243V6.608ZM198.347 4.608V6.504H202.347V4.608H198.347ZM208.203 11.28C208.203 9.86933 207.795 8.50757 206.754 7.46579L203.925 10.2942C204.035 10.4044 204.203 10.6427 204.203 11.28H208.203ZM206.792 7.5056C205.846 6.50488 204.62 5.992 203.251 5.992V9.992C203.547 9.992 203.713 10.0711 203.886 10.2544L206.792 7.5056ZM203.251 5.992C201.888 5.992 200.677 6.51165 199.73 7.48529L202.597 10.2747C202.801 10.0644 202.983 9.992 203.251 9.992V5.992ZM199.71 7.5056C198.715 8.5579 198.323 9.90593 198.323 11.304H202.323C202.323 10.6541 202.492 10.3861 202.616 10.2544L199.71 7.5056ZM198.323 11.304C198.323 12.7021 198.715 14.0501 199.71 15.1024L202.616 12.3536C202.492 12.2219 202.323 11.9539 202.323 11.304H198.323ZM199.73 15.1227C200.677 16.0964 201.888 16.616 203.251 16.616V12.616C202.983 12.616 202.801 12.5436 202.597 12.3333L199.73 15.1227ZM203.251 16.616C204.615 16.616 205.825 16.0964 206.773 15.1227L203.906 12.3333C203.701 12.5436 203.52 12.616 203.251 12.616V16.616ZM206.791 15.1035C207.794 14.045 208.203 12.6955 208.203 11.28H204.203C204.203 11.9125 204.037 12.195 203.887 12.3525L206.791 15.1035ZM220.596 6.504H218.596V13.33L222.28 7.58333L220.596 6.504ZM222.252 4.992L221.295 3.23621L221.295 3.23621L222.252 4.992ZM227.724 5.256L226.664 6.952L226.664 6.952L227.724 5.256ZM229.836 7.656L228.042 8.53937L228.047 8.55041L228.053 8.56138L229.836 7.656ZM229.836 14.928L228.047 14.0336L228.042 14.0446L229.836 14.928ZM227.724 17.352L228.784 19.048L228.795 19.0412L228.806 19.0344L227.724 17.352ZM222.252 17.616L221.295 19.3718L221.303 19.3763L221.311 19.3807L222.252 17.616ZM220.596 16.128L222.267 15.0288L218.596 9.4491V16.128H220.596ZM220.596 24.384V26.384H222.596V24.384H220.596ZM216.492 24.384H214.492V26.384H216.492V24.384ZM216.492 4.608V2.608H214.492V4.608H216.492ZM220.596 4.608H222.596V2.608H220.596V4.608ZM225.588 8.88L224.135 10.2544L224.155 10.2746L224.174 10.2942L225.588 8.88ZM221.412 8.88L219.979 7.48529L219.969 7.49538L219.959 7.5056L221.412 8.88ZM221.412 13.728L219.959 15.1024L219.969 15.1126L219.979 15.1227L221.412 13.728ZM225.588 13.728L227.022 15.1227L227.031 15.1132L227.04 15.1035L225.588 13.728ZM222.28 7.58333C222.484 7.26512 222.776 6.98442 223.21 6.74779L221.295 3.23621C220.321 3.76758 219.509 4.49487 218.913 5.42467L222.28 7.58333ZM223.21 6.74779C223.572 6.55026 224.056 6.416 224.724 6.416V2.416C223.505 2.416 222.341 2.66574 221.295 3.23621L223.21 6.74779ZM224.724 6.416C225.471 6.416 226.101 6.59981 226.664 6.952L228.784 3.56C227.556 2.79219 226.186 2.416 224.724 2.416V6.416ZM226.664 6.952C227.214 7.29581 227.678 7.79975 228.042 8.53937L231.631 6.77263C230.971 5.43225 230.026 4.33619 228.784 3.56L226.664 6.952ZM228.053 8.56138C228.415 9.27458 228.628 10.1623 228.628 11.28H232.628C232.628 9.64569 232.314 8.11741 231.62 6.75061L228.053 8.56138ZM228.628 11.28C228.628 12.3968 228.415 13.2978 228.048 14.0336L231.625 15.8224C232.313 14.4462 232.628 12.9152 232.628 11.28H228.628ZM228.042 14.0446C227.676 14.7882 227.206 15.3074 226.643 15.6696L228.806 19.0344C230.034 18.2446 230.973 17.1478 231.631 15.8114L228.042 14.0446ZM226.664 15.656C226.101 16.0082 225.471 16.192 224.724 16.192V20.192C226.186 20.192 227.556 19.8158 228.784 19.048L226.664 15.656ZM224.724 16.192C224.079 16.192 223.586 16.0607 223.194 15.8513L221.311 19.3807C222.359 19.9393 223.514 20.192 224.724 20.192V16.192ZM223.21 15.8602C222.764 15.617 222.469 15.3356 222.267 15.0288L218.926 17.2272C219.524 18.1364 220.333 18.847 221.295 19.3718L223.21 15.8602ZM218.596 16.128V24.384H222.596V16.128H218.596ZM220.596 22.384H216.492V26.384H220.596V22.384ZM218.492 24.384V4.608H214.492V24.384H218.492ZM216.492 6.608H220.596V2.608H216.492V6.608ZM218.596 4.608V6.504H222.596V4.608H218.596ZM228.452 11.28C228.452 9.86933 228.044 8.50757 227.003 7.46579L224.174 10.2942C224.284 10.4044 224.452 10.6427 224.452 11.28H228.452ZM227.041 7.5056C226.095 6.50488 224.869 5.992 223.5 5.992V9.992C223.796 9.992 223.962 10.0711 224.135 10.2544L227.041 7.5056ZM223.5 5.992C222.137 5.992 220.926 6.51165 219.979 7.48529L222.846 10.2747C223.051 10.0644 223.232 9.992 223.5 9.992V5.992ZM219.959 7.5056C218.964 8.5579 218.572 9.90593 218.572 11.304H222.572C222.572 10.6541 222.741 10.3861 222.865 10.2544L219.959 7.5056ZM218.572 11.304C218.572 12.7021 218.964 14.0501 219.959 15.1024L222.865 12.3536C222.741 12.2219 222.572 11.9539 222.572 11.304H218.572ZM219.979 15.1227C220.926 16.0964 222.137 16.616 223.5 16.616V12.616C223.232 12.616 223.051 12.5436 222.846 12.3333L219.979 15.1227ZM223.5 16.616C224.864 16.616 226.075 16.0964 227.022 15.1227L224.155 12.3333C223.95 12.5436 223.769 12.616 223.5 12.616V16.616ZM227.04 15.1035C228.043 14.045 228.452 12.6955 228.452 11.28H224.452C224.452 11.9125 224.286 12.195 224.136 12.3525L227.04 15.1035Z" fill="#448AFF"/>
</svg>
