<svg width="232" height="144" viewBox="0 0 232 144" fill="none" xmlns="http://www.w3.org/2000/svg">
<rect x="65" width="102" height="102" rx="10" fill="#448AFF"/>
<path d="M121.451 69.0631C116.198 78.4486 140.938 87.6569 126.477 87.6569C115.197 87.6569 105.151 77.6899 112.774 69.0631C121.746 58.9104 92.2156 52.7715 103.495 52.7715C114.775 52.7715 128.225 56.9613 121.451 69.0631Z" fill="#F9F9F9"/>
<path d="M128.416 31.7347C128.416 41.4931 113.269 49.4657 104.081 49.4657C94.8928 49.4657 115.669 41.4931 115.669 31.7347C115.669 21.9762 94.8928 14.2852 104.081 14.2852C113.269 14.2852 128.416 21.9762 128.416 31.7347Z" fill="#F9F9F9"/>
<path d="M13.608 117.152V120.44H9.144V134H5.04V120.44H0.576V117.152H13.608ZM27.8597 120.464C29.3957 120.464 30.6277 120.976 31.5557 122C32.4837 123.008 32.9477 124.4 32.9477 126.176V134H28.8677V126.728C28.8677 125.832 28.6357 125.136 28.1717 124.64C27.7077 124.144 27.0837 123.896 26.2997 123.896C25.5157 123.896 24.8917 124.144 24.4277 124.64C23.9637 125.136 23.7317 125.832 23.7317 126.728V134H19.6277V116.24H23.7317V122.408C24.1477 121.816 24.7157 121.344 25.4357 120.992C26.1557 120.64 26.9637 120.464 27.8597 120.464ZM52.3836 127.088C52.3836 127.472 52.3596 127.872 52.3116 128.288H43.0236C43.0876 129.12 43.3516 129.76 43.8156 130.208C44.2956 130.64 44.8796 130.856 45.5676 130.856C46.5916 130.856 47.3036 130.424 47.7036 129.56H52.0716C51.8476 130.44 51.4396 131.232 50.8476 131.936C50.2716 132.64 49.5436 133.192 48.6636 133.592C47.7836 133.992 46.7996 134.192 45.7116 134.192C44.3996 134.192 43.2316 133.912 42.2076 133.352C41.1836 132.792 40.3836 131.992 39.8076 130.952C39.2316 129.912 38.9436 128.696 38.9436 127.304C38.9436 125.912 39.2236 124.696 39.7836 123.656C40.3596 122.616 41.1596 121.816 42.1836 121.256C43.2076 120.696 44.3836 120.416 45.7116 120.416C47.0076 120.416 48.1596 120.688 49.1676 121.232C50.1756 121.776 50.9596 122.552 51.5196 123.56C52.0956 124.568 52.3836 125.744 52.3836 127.088ZM48.1836 126.008C48.1836 125.304 47.9436 124.744 47.4636 124.328C46.9836 123.912 46.3836 123.704 45.6636 123.704C44.9756 123.704 44.3916 123.904 43.9116 124.304C43.4476 124.704 43.1596 125.272 43.0476 126.008H48.1836ZM76.1466 134L72.6426 127.64H71.6586V134H67.5546V117.152H74.4426C75.7706 117.152 76.8986 117.384 77.8266 117.848C78.7706 118.312 79.4746 118.952 79.9386 119.768C80.4026 120.568 80.6346 121.464 80.6346 122.456C80.6346 123.576 80.3146 124.576 79.6746 125.456C79.0506 126.336 78.1226 126.96 76.8906 127.328L80.7786 134H76.1466ZM71.6586 124.736H74.2026C74.9546 124.736 75.5146 124.552 75.8826 124.184C76.2666 123.816 76.4586 123.296 76.4586 122.624C76.4586 121.984 76.2666 121.48 75.8826 121.112C75.5146 120.744 74.9546 120.56 74.2026 120.56H71.6586V124.736ZM99.7948 127.088C99.7948 127.472 99.7708 127.872 99.7228 128.288H90.4348C90.4988 129.12 90.7628 129.76 91.2268 130.208C91.7068 130.64 92.2908 130.856 92.9788 130.856C94.0028 130.856 94.7148 130.424 95.1148 129.56H99.4828C99.2588 130.44 98.8508 131.232 98.2588 131.936C97.6828 132.64 96.9548 133.192 96.0748 133.592C95.1948 133.992 94.2108 134.192 93.1228 134.192C91.8108 134.192 90.6428 133.912 89.6188 133.352C88.5948 132.792 87.7948 131.992 87.2188 130.952C86.6428 129.912 86.3548 128.696 86.3548 127.304C86.3548 125.912 86.6348 124.696 87.1948 123.656C87.7708 122.616 88.5708 121.816 89.5948 121.256C90.6188 120.696 91.7948 120.416 93.1228 120.416C94.4188 120.416 95.5708 120.688 96.5788 121.232C97.5868 121.776 98.3708 122.552 98.9308 123.56C99.5068 124.568 99.7948 125.744 99.7948 127.088ZM95.5948 126.008C95.5948 125.304 95.3548 124.744 94.8748 124.328C94.3948 123.912 93.7948 123.704 93.0748 123.704C92.3868 123.704 91.8028 123.904 91.3228 124.304C90.8588 124.704 90.5708 125.272 90.4588 126.008H95.5948ZM105.104 127.28C105.104 125.904 105.36 124.696 105.872 123.656C106.4 122.616 107.112 121.816 108.008 121.256C108.904 120.696 109.904 120.416 111.008 120.416C111.952 120.416 112.776 120.608 113.48 120.992C114.2 121.376 114.752 121.88 115.136 122.504V120.608H119.24V134H115.136V132.104C114.736 132.728 114.176 133.232 113.456 133.616C112.752 134 111.928 134.192 110.984 134.192C109.896 134.192 108.904 133.912 108.008 133.352C107.112 132.776 106.4 131.968 105.872 130.928C105.36 129.872 105.104 128.656 105.104 127.28ZM115.136 127.304C115.136 126.28 114.848 125.472 114.272 124.88C113.712 124.288 113.024 123.992 112.208 123.992C111.392 123.992 110.696 124.288 110.12 124.88C109.56 125.456 109.28 126.256 109.28 127.28C109.28 128.304 109.56 129.12 110.12 129.728C110.696 130.32 111.392 130.616 112.208 130.616C113.024 130.616 113.712 130.32 114.272 129.728C114.848 129.136 115.136 128.328 115.136 127.304ZM125.353 127.28C125.353 125.904 125.609 124.696 126.121 123.656C126.649 122.616 127.361 121.816 128.257 121.256C129.153 120.696 130.153 120.416 131.257 120.416C132.137 120.416 132.937 120.6 133.657 120.968C134.393 121.336 134.969 121.832 135.385 122.456V116.24H139.489V134H135.385V132.08C135.001 132.72 134.449 133.232 133.729 133.616C133.025 134 132.201 134.192 131.257 134.192C130.153 134.192 129.153 133.912 128.257 133.352C127.361 132.776 126.649 131.968 126.121 130.928C125.609 129.872 125.353 128.656 125.353 127.28ZM135.385 127.304C135.385 126.28 135.097 125.472 134.521 124.88C133.961 124.288 133.273 123.992 132.457 123.992C131.641 123.992 130.945 124.288 130.369 124.88C129.809 125.456 129.529 126.256 129.529 127.28C129.529 128.304 129.809 129.12 130.369 129.728C130.945 130.32 131.641 130.616 132.457 130.616C133.273 130.616 133.961 130.32 134.521 129.728C135.097 129.136 135.385 128.328 135.385 127.304ZM160.098 120.608L151.698 140.36H147.282L150.354 133.544L144.906 120.608H149.49L152.586 128.984L155.658 120.608H160.098ZM185.076 131.024H178.788L177.78 134H173.484L179.58 117.152H184.332L190.428 134H186.084L185.076 131.024ZM184.02 127.856L181.932 121.688L179.868 127.856H184.02ZM200.347 122.504C200.747 121.88 201.299 121.376 202.003 120.992C202.707 120.608 203.531 120.416 204.475 120.416C205.579 120.416 206.579 120.696 207.475 121.256C208.371 121.816 209.075 122.616 209.587 123.656C210.115 124.696 210.379 125.904 210.379 127.28C210.379 128.656 210.115 129.872 209.587 130.928C209.075 131.968 208.371 132.776 207.475 133.352C206.579 133.912 205.579 134.192 204.475 134.192C203.547 134.192 202.723 134 202.003 133.616C201.299 133.232 200.747 132.736 200.347 132.128V140.384H196.243V120.608H200.347V122.504ZM206.203 127.28C206.203 126.256 205.915 125.456 205.339 124.88C204.779 124.288 204.083 123.992 203.251 123.992C202.435 123.992 201.739 124.288 201.163 124.88C200.603 125.472 200.323 126.28 200.323 127.304C200.323 128.328 200.603 129.136 201.163 129.728C201.739 130.32 202.435 130.616 203.251 130.616C204.067 130.616 204.763 130.32 205.339 129.728C205.915 129.12 206.203 128.304 206.203 127.28ZM220.596 122.504C220.996 121.88 221.548 121.376 222.252 120.992C222.956 120.608 223.78 120.416 224.724 120.416C225.828 120.416 226.828 120.696 227.724 121.256C228.62 121.816 229.324 122.616 229.836 123.656C230.364 124.696 230.628 125.904 230.628 127.28C230.628 128.656 230.364 129.872 229.836 130.928C229.324 131.968 228.62 132.776 227.724 133.352C226.828 133.912 225.828 134.192 224.724 134.192C223.796 134.192 222.972 134 222.252 133.616C221.548 133.232 220.996 132.736 220.596 132.128V140.384H216.492V120.608H220.596V122.504ZM226.452 127.28C226.452 126.256 226.164 125.456 225.588 124.88C225.028 124.288 224.332 123.992 223.5 123.992C222.684 123.992 221.988 124.288 221.412 124.88C220.852 125.472 220.572 126.28 220.572 127.304C220.572 128.328 220.852 129.136 221.412 129.728C221.988 130.32 222.684 130.616 223.5 130.616C224.316 130.616 225.012 130.32 225.588 129.728C226.164 129.12 226.452 128.304 226.452 127.28Z" fill="#F9F9F9"/>
</svg>
