<svg width="239" height="149" viewBox="0 0 239 149" fill="none" xmlns="http://www.w3.org/2000/svg">
<g filter="url(#filter0_d_217_99)">
<rect x="69" width="102" height="102" rx="10" fill="#448AFF"/>
</g>
<path d="M125.451 69.0631C120.198 78.4486 144.938 87.6569 130.477 87.6569C119.197 87.6569 109.151 77.6899 116.774 69.0631C125.746 58.9104 96.2156 52.7715 107.495 52.7715C118.775 52.7715 132.225 56.9613 125.451 69.0631Z" fill="#F9F9F9"/>
<path d="M132.416 31.7347C132.416 41.4931 117.269 49.4657 108.081 49.4657C98.8928 49.4657 119.669 41.4931 119.669 31.7347C119.669 21.9762 98.8928 14.2852 108.081 14.2852C117.269 14.2852 132.416 21.9762 132.416 31.7347Z" fill="#F9F9F9"/>
<g filter="url(#filter1_d_217_99)">
<path d="M17.608 117.152V120.44H13.144V134H9.04V120.44H4.576V117.152H17.608ZM31.8597 120.464C33.3957 120.464 34.6277 120.976 35.5557 122C36.4837 123.008 36.9477 124.4 36.9477 126.176V134H32.8677V126.728C32.8677 125.832 32.6357 125.136 32.1717 124.64C31.7077 124.144 31.0837 123.896 30.2997 123.896C29.5157 123.896 28.8917 124.144 28.4277 124.64C27.9637 125.136 27.7317 125.832 27.7317 126.728V134H23.6277V116.24H27.7317V122.408C28.1477 121.816 28.7157 121.344 29.4357 120.992C30.1557 120.64 30.9637 120.464 31.8597 120.464ZM56.3836 127.088C56.3836 127.472 56.3596 127.872 56.3116 128.288H47.0236C47.0876 129.12 47.3516 129.76 47.8156 130.208C48.2956 130.64 48.8796 130.856 49.5676 130.856C50.5916 130.856 51.3036 130.424 51.7036 129.56H56.0716C55.8476 130.44 55.4396 131.232 54.8476 131.936C54.2716 132.64 53.5436 133.192 52.6636 133.592C51.7836 133.992 50.7996 134.192 49.7116 134.192C48.3996 134.192 47.2316 133.912 46.2076 133.352C45.1836 132.792 44.3836 131.992 43.8076 130.952C43.2316 129.912 42.9436 128.696 42.9436 127.304C42.9436 125.912 43.2236 124.696 43.7836 123.656C44.3596 122.616 45.1596 121.816 46.1836 121.256C47.2076 120.696 48.3836 120.416 49.7116 120.416C51.0076 120.416 52.1596 120.688 53.1676 121.232C54.1756 121.776 54.9596 122.552 55.5196 123.56C56.0956 124.568 56.3836 125.744 56.3836 127.088ZM52.1836 126.008C52.1836 125.304 51.9436 124.744 51.4636 124.328C50.9836 123.912 50.3836 123.704 49.6636 123.704C48.9756 123.704 48.3916 123.904 47.9116 124.304C47.4476 124.704 47.1596 125.272 47.0476 126.008H52.1836ZM80.1466 134L76.6426 127.64H75.6586V134H71.5546V117.152H78.4426C79.7706 117.152 80.8986 117.384 81.8266 117.848C82.7706 118.312 83.4746 118.952 83.9386 119.768C84.4026 120.568 84.6346 121.464 84.6346 122.456C84.6346 123.576 84.3146 124.576 83.6746 125.456C83.0506 126.336 82.1226 126.96 80.8906 127.328L84.7786 134H80.1466ZM75.6586 124.736H78.2026C78.9546 124.736 79.5146 124.552 79.8826 124.184C80.2666 123.816 80.4586 123.296 80.4586 122.624C80.4586 121.984 80.2666 121.48 79.8826 121.112C79.5146 120.744 78.9546 120.56 78.2026 120.56H75.6586V124.736ZM103.795 127.088C103.795 127.472 103.771 127.872 103.723 128.288H94.4348C94.4988 129.12 94.7628 129.76 95.2268 130.208C95.7068 130.64 96.2908 130.856 96.9788 130.856C98.0028 130.856 98.7148 130.424 99.1148 129.56H103.483C103.259 130.44 102.851 131.232 102.259 131.936C101.683 132.64 100.955 133.192 100.075 133.592C99.1948 133.992 98.2108 134.192 97.1228 134.192C95.8108 134.192 94.6428 133.912 93.6188 133.352C92.5948 132.792 91.7948 131.992 91.2188 130.952C90.6428 129.912 90.3548 128.696 90.3548 127.304C90.3548 125.912 90.6348 124.696 91.1948 123.656C91.7708 122.616 92.5708 121.816 93.5948 121.256C94.6188 120.696 95.7948 120.416 97.1228 120.416C98.4188 120.416 99.5708 120.688 100.579 121.232C101.587 121.776 102.371 122.552 102.931 123.56C103.507 124.568 103.795 125.744 103.795 127.088ZM99.5948 126.008C99.5948 125.304 99.3548 124.744 98.8748 124.328C98.3948 123.912 97.7948 123.704 97.0748 123.704C96.3868 123.704 95.8028 123.904 95.3228 124.304C94.8588 124.704 94.5708 125.272 94.4588 126.008H99.5948ZM109.104 127.28C109.104 125.904 109.36 124.696 109.872 123.656C110.4 122.616 111.112 121.816 112.008 121.256C112.904 120.696 113.904 120.416 115.008 120.416C115.952 120.416 116.776 120.608 117.48 120.992C118.2 121.376 118.752 121.88 119.136 122.504V120.608H123.24V134H119.136V132.104C118.736 132.728 118.176 133.232 117.456 133.616C116.752 134 115.928 134.192 114.984 134.192C113.896 134.192 112.904 133.912 112.008 133.352C111.112 132.776 110.4 131.968 109.872 130.928C109.36 129.872 109.104 128.656 109.104 127.28ZM119.136 127.304C119.136 126.28 118.848 125.472 118.272 124.88C117.712 124.288 117.024 123.992 116.208 123.992C115.392 123.992 114.696 124.288 114.12 124.88C113.56 125.456 113.28 126.256 113.28 127.28C113.28 128.304 113.56 129.12 114.12 129.728C114.696 130.32 115.392 130.616 116.208 130.616C117.024 130.616 117.712 130.32 118.272 129.728C118.848 129.136 119.136 128.328 119.136 127.304ZM129.353 127.28C129.353 125.904 129.609 124.696 130.121 123.656C130.649 122.616 131.361 121.816 132.257 121.256C133.153 120.696 134.153 120.416 135.257 120.416C136.137 120.416 136.937 120.6 137.657 120.968C138.393 121.336 138.969 121.832 139.385 122.456V116.24H143.489V134H139.385V132.08C139.001 132.72 138.449 133.232 137.729 133.616C137.025 134 136.201 134.192 135.257 134.192C134.153 134.192 133.153 133.912 132.257 133.352C131.361 132.776 130.649 131.968 130.121 130.928C129.609 129.872 129.353 128.656 129.353 127.28ZM139.385 127.304C139.385 126.28 139.097 125.472 138.521 124.88C137.961 124.288 137.273 123.992 136.457 123.992C135.641 123.992 134.945 124.288 134.369 124.88C133.809 125.456 133.529 126.256 133.529 127.28C133.529 128.304 133.809 129.12 134.369 129.728C134.945 130.32 135.641 130.616 136.457 130.616C137.273 130.616 137.961 130.32 138.521 129.728C139.097 129.136 139.385 128.328 139.385 127.304ZM164.098 120.608L155.698 140.36H151.282L154.354 133.544L148.906 120.608H153.49L156.586 128.984L159.658 120.608H164.098ZM189.076 131.024H182.788L181.78 134H177.484L183.58 117.152H188.332L194.428 134H190.084L189.076 131.024ZM188.02 127.856L185.932 121.688L183.868 127.856H188.02ZM204.347 122.504C204.747 121.88 205.299 121.376 206.003 120.992C206.707 120.608 207.531 120.416 208.475 120.416C209.579 120.416 210.579 120.696 211.475 121.256C212.371 121.816 213.075 122.616 213.587 123.656C214.115 124.696 214.379 125.904 214.379 127.28C214.379 128.656 214.115 129.872 213.587 130.928C213.075 131.968 212.371 132.776 211.475 133.352C210.579 133.912 209.579 134.192 208.475 134.192C207.547 134.192 206.723 134 206.003 133.616C205.299 133.232 204.747 132.736 204.347 132.128V140.384H200.243V120.608H204.347V122.504ZM210.203 127.28C210.203 126.256 209.915 125.456 209.339 124.88C208.779 124.288 208.083 123.992 207.251 123.992C206.435 123.992 205.739 124.288 205.163 124.88C204.603 125.472 204.323 126.28 204.323 127.304C204.323 128.328 204.603 129.136 205.163 129.728C205.739 130.32 206.435 130.616 207.251 130.616C208.067 130.616 208.763 130.32 209.339 129.728C209.915 129.12 210.203 128.304 210.203 127.28ZM224.596 122.504C224.996 121.88 225.548 121.376 226.252 120.992C226.956 120.608 227.78 120.416 228.724 120.416C229.828 120.416 230.828 120.696 231.724 121.256C232.62 121.816 233.324 122.616 233.836 123.656C234.364 124.696 234.628 125.904 234.628 127.28C234.628 128.656 234.364 129.872 233.836 130.928C233.324 131.968 232.62 132.776 231.724 133.352C230.828 133.912 229.828 134.192 228.724 134.192C227.796 134.192 226.972 134 226.252 133.616C225.548 133.232 224.996 132.736 224.596 132.128V140.384H220.492V120.608H224.596V122.504ZM230.452 127.28C230.452 126.256 230.164 125.456 229.588 124.88C229.028 124.288 228.332 123.992 227.5 123.992C226.684 123.992 225.988 124.288 225.412 124.88C224.852 125.472 224.572 126.28 224.572 127.304C224.572 128.328 224.852 129.136 225.412 129.728C225.988 130.32 226.684 130.616 227.5 130.616C228.316 130.616 229.012 130.32 229.588 129.728C230.164 129.12 230.452 128.304 230.452 127.28Z" fill="#F9F9F9"/>
</g>
<defs>
<filter id="filter0_d_217_99" x="65" y="0" width="110" height="110" filterUnits="userSpaceOnUse" color-interpolation-filters="sRGB">
<feFlood flood-opacity="0" result="BackgroundImageFix"/>
<feColorMatrix in="SourceAlpha" type="matrix" values="0 0 0 0 0 0 0 0 0 0 0 0 0 0 0 0 0 0 127 0" result="hardAlpha"/>
<feOffset dy="4"/>
<feGaussianBlur stdDeviation="2"/>
<feComposite in2="hardAlpha" operator="out"/>
<feColorMatrix type="matrix" values="0 0 0 0 0 0 0 0 0 0 0 0 0 0 0 0 0 0 0.25 0"/>
<feBlend mode="normal" in2="BackgroundImageFix" result="effect1_dropShadow_217_99"/>
<feBlend mode="normal" in="SourceGraphic" in2="effect1_dropShadow_217_99" result="shape"/>
</filter>
<filter id="filter1_d_217_99" x="0.575928" y="116.24" width="238.052" height="32.1436" filterUnits="userSpaceOnUse" color-interpolation-filters="sRGB">
<feFlood flood-opacity="0" result="BackgroundImageFix"/>
<feColorMatrix in="SourceAlpha" type="matrix" values="0 0 0 0 0 0 0 0 0 0 0 0 0 0 0 0 0 0 127 0" result="hardAlpha"/>
<feOffset dy="4"/>
<feGaussianBlur stdDeviation="2"/>
<feComposite in2="hardAlpha" operator="out"/>
<feColorMatrix type="matrix" values="0 0 0 0 0 0 0 0 0 0 0 0 0 0 0 0 0 0 0.25 0"/>
<feBlend mode="normal" in2="BackgroundImageFix" result="effect1_dropShadow_217_99"/>
<feBlend mode="normal" in="SourceGraphic" in2="effect1_dropShadow_217_99" result="shape"/>
</filter>
</defs>
</svg>
